<?xml version="1.0" encoding="utf-8"?>
<!-- Generator: Adobe Illustrator 16.0.0, SVG Export Plug-In . SVG Version: 6.00 Build 0)  -->
<!DOCTYPE svg PUBLIC "-//W3C//DTD SVG 1.1//EN" "http://www.w3.org/Graphics/SVG/1.1/DTD/svg11.dtd">
<svg version="1.1" xmlns="http://www.w3.org/2000/svg" xmlns:xlink="http://www.w3.org/1999/xlink" x="0px" y="0px" width="1000px"
	 height="1000px" viewBox="0 0 1000 1000" enable-background="new 0 0 1000 1000" xml:space="preserve">
<g id="Base" display="none">
	<path display="inline" fill="none" stroke="#000000" stroke-width="12" d="M499.998,950C748.522,950,950,748.536,950,500.005
		C950,251.484,748.522,50,499.998,50C251.47,50,50,251.484,50,500.005C50,748.536,251.47,950,499.998,950z"/>
</g>
<g id="Venta" display="none">
	<path display="inline" fill="none" stroke="#000000" stroke-width="12" d="M499.998,950C748.522,950,950,748.536,950,500.005
		C950,251.484,748.522,50,499.998,50C251.47,50,50,251.484,50,500.005C50,748.536,251.47,950,499.998,950z"/>
	<path display="inline" fill="none" stroke="#000000" stroke-width="12" stroke-miterlimit="10" d="M245.368,550.34v298.616
		 M313.228,658.924v190.032 M381.094,848.956V523.204h81.441c40.955,0,54.295-24.183,54.295-54.302H258.942
		c-48.644,0-67.873,20.524-67.873,81.438v95.01c0,29.115,11.608,54.299,40.724,54.299 M313.228,428.178
		c31.082,0,54.299-26.038,54.299-58.164v-19.393c0-32.126-23.217-58.163-54.299-58.163c-31.075,0-54.285,26.037-54.285,58.163
		v19.393C258.942,402.141,282.152,428.178,313.228,428.178z M421.812,672.499h393.621V278.884v-40.717H191.069v190.011"/>
	<path display="inline" fill="none" stroke="#000000" stroke-width="12" stroke-linejoin="round" stroke-miterlimit="10" d="
		M590.088,449.225v108.587 M685.151,401.693l-95.063,47.532 M495.035,401.693l95.053,47.532 M495.082,551.019l95.006,47.518
		l135.733-67.873V381.358l-135.733-67.866l-135.729,67.866v67.867"/>
</g>
<g id="Desarrollo" display="none">
	<path display="inline" fill="none" stroke="#000000" stroke-width="12" d="M500.854,951.299
		c248.884,0,450.649-201.759,450.649-450.643c0-248.876-201.766-450.649-450.649-450.649S50.208,251.78,50.208,500.656
		C50.208,749.54,251.971,951.299,500.854,951.299z"/>
	<path display="inline" fill="none" stroke="#000000" stroke-width="12" stroke-miterlimit="10" d="M482.553,950V780.576
		l-82.366-0.613c-66.922,0-122.085-55.451-122.085-122.376L192,657l42.723-243.344c14.393-133.875,127.681-237.549,265.38-237.549
		c147.452,0,266.986,119.534,266.986,266.986v421.189"/>
	
		<line display="inline" fill="none" stroke="#000000" stroke-width="12" stroke-linejoin="round" stroke-miterlimit="10" x1="500.103" y1="500.005" x2="500.103" y2="628.198"/>
	
		<line display="inline" fill="none" stroke="#000000" stroke-width="12" stroke-linejoin="round" stroke-miterlimit="10" x1="614.05" y1="450.128" x2="500.103" y2="500.005"/>
	
		<line display="inline" fill="none" stroke="#000000" stroke-width="12" stroke-linejoin="round" stroke-miterlimit="10" x1="386.155" y1="450.128" x2="500.103" y2="500.005"/>
	
		<polygon display="inline" fill="none" stroke="#000000" stroke-width="12" stroke-linejoin="round" stroke-miterlimit="10" points="
		500.103,357.574 343.424,428.79 343.424,599.707 500.103,670.922 656.78,599.707 656.78,428.79 	"/>
</g>
<g id="Engine" display="none">
	<path display="inline" fill="none" stroke="#000000" stroke-width="12" d="M500,950c248.529,0,450-201.47,450-449.996
		C950,251.483,748.529,50,500,50C251.471,50,50,251.483,50,500.004C50,748.53,251.471,950,500,950z"/>
	
		<line display="inline" fill="none" stroke="#000000" stroke-width="12" stroke-linejoin="round" stroke-miterlimit="10" x1="500.103" y1="500.005" x2="500.103" y2="628.198"/>
	
		<line display="inline" fill="none" stroke="#000000" stroke-width="12" stroke-linejoin="round" stroke-miterlimit="10" x1="614.05" y1="450.128" x2="500.103" y2="500.005"/>
	
		<line display="inline" fill="none" stroke="#000000" stroke-width="12" stroke-linejoin="round" stroke-miterlimit="10" x1="386.155" y1="450.128" x2="500.103" y2="500.005"/>
	
		<polygon display="inline" fill="none" stroke="#000000" stroke-width="12" stroke-linejoin="round" stroke-miterlimit="10" points="
		500.103,357.574 343.424,428.79 343.424,599.707 500.103,670.922 656.78,599.707 656.78,428.79 	"/>
	
		<polygon display="inline" fill="none" stroke="#000000" stroke-width="12" stroke-linejoin="round" stroke-miterlimit="10" points="
		524.804,255.39 556.482,205.749 608.564,220.992 609.614,282.484 647.77,304.704 701.587,274.856 739.714,312.977 709.852,366.786 
		731.882,404.94 793.423,405.992 808.801,458.066 759.154,489.745 759.154,533.804 808.801,565.477 793.559,617.557 732.06,618.61 
		709.845,656.77 739.693,710.587 701.565,748.707 647.763,718.846 609.602,740.882 608.558,802.416 556.482,817.792 
		524.804,768.152 480.742,768.152 449.065,817.792 396.989,802.558 395.938,741.059 357.777,718.838 303.96,748.693 
		265.833,710.573 295.688,656.764 273.657,618.603 212.124,617.557 196.746,565.477 246.393,533.804 246.393,489.745 
		196.746,458.066 211.982,405.984 273.488,404.934 295.701,366.773 265.846,312.956 303.974,274.829 357.784,304.697 
		395.938,282.654 396.989,221.127 449.065,205.749 480.742,255.39 	"/>
</g>
<g id="Face" display="none">
	<path display="inline" fill="none" stroke="#000000" stroke-width="12" d="M500.854,951.299
		c248.884,0,450.649-201.759,450.649-450.643c0-248.876-201.766-450.649-450.649-450.649S50.208,251.78,50.208,500.656
		C50.208,749.54,251.971,951.299,500.854,951.299z"/>
	<path display="inline" fill="none" stroke="#000000" stroke-width="12" stroke-miterlimit="10" d="M482.553,950V780.576
		l-82.366-0.613c-66.922,0-122.085-55.451-122.085-122.376L192,657l42.723-243.344c14.393-133.875,127.681-237.549,265.38-237.549
		c147.452,0,266.986,119.534,266.986,266.986v421.189"/>
</g>
<g id="People" display="none">
	<path display="inline" fill="none" stroke="#000000" stroke-width="12" d="M500.009,950C748.53,950,950,748.542,950,500.005
		C950,251.472,748.53,50,500.009,50C251.476,50,50,251.472,50,500.005C50,748.542,251.476,950,500.009,950z"/>
	<g display="inline">
		<path fill="none" stroke="#000000" stroke-width="12" stroke-miterlimit="10" d="M513.176,183.615
			c3.724,1.55,7.369,3.278,11.16,4.595c32.18,11.16,49.916,41.52,43.975,75.359c-5.921,33.637-32.78,55.469-67.577,54.899
			c-32.535-0.534-59.729-24.138-64.522-56.003c-5.128-34.028,14.272-65.37,46.594-75.315c3.511-1.07,6.991-2.34,10.481-3.535
			H513.176z"/>
		<path fill="none" stroke="#000000" stroke-width="12" stroke-miterlimit="10" d="M602.996,577.953
			c-2.106,0.656-2.853,1.07-3.633,1.113c-30.217,1.941-30.184,1.941-35.904,31.998c-10.2,53.708-20.615,107.371-30.524,161.121
			c-1.563,8.488-4.63,12.098-13.66,11.274c-9.455-0.849-19.077-0.703-28.553-0.024c-8.352,0.604-11.26-2.572-12.878-10.68
			c-11.84-59.283-24.662-118.374-36.089-177.745c-2.308-11.973-7.136-16.3-18.509-15.61c-6.579,0.414-13.211,0.09-20.805,0.09
			c-0.479-3.857-1.205-6.969-1.193-10.08c0.035-55.522,0.636-111.06,0.011-166.573c-0.213-18.552,7.415-30.974,22.958-39.223
			c51.219-27.205,102.854-28.074,154.74-1.818c16.683,8.451,24.644,21.195,24.442,40.729c-0.592,55.937,0.188,111.886,0.378,167.811
			C603.776,572.758,603.285,575.188,602.996,577.953z"/>
	</g>
	<g display="inline">
		<path fill="none" stroke="#000000" stroke-width="12" stroke-miterlimit="10" d="M644.06,535.606
			c0-50.33-0.446-98.741,0.534-147.107c0.145-6.456,6.199-14.528,11.809-18.832c33.949-26.056,93.821-27.116,128.842-2.375
			c5.908,4.18,13.067,11.863,13.201,18.062c1.07,49.548,0.592,99.12,0.592,149.426c-1.562,0.278-3.514,0.826-5.475,0.905
			c-21.184,0.855-21.228,0.836-24.752,21.239c-7.393,42.824-14.706,85.672-22.099,128.497c-0.702,4.048-1.681,8.061-2.663,12.71
			h-44.665c-4.872-28.198-9.7-56.248-14.552-84.279c-3.811-22.031-8.249-43.974-11.248-66.095
			c-1.383-10.211-5.71-13.477-15.296-12.252C653.882,536.073,649.334,535.606,644.06,535.606z"/>
		<path fill="none" stroke="#000000" stroke-width="12" stroke-miterlimit="10" d="M721.58,337.947
			c-27.86-0.1-50.293-23.001-49.892-50.942c0.39-27.774,22.287-49.571,49.792-49.571c28.119-0.01,50.721,22.322,50.73,50.118
			C772.211,315.292,749.344,338.059,721.58,337.947z"/>
	</g>
	<g display="inline">
		<path fill="none" stroke="#000000" stroke-width="12" stroke-miterlimit="10" d="M360.506,534.557
			c-1.583,0.324-3.166,0.826-4.76,0.927c-22.199,1.426-22.243,1.404-26,23.089c-7.503,43.218-15.231,86.412-22.2,129.715
			c-1.371,8.463-4.582,10.659-12.709,10.693c-34.139,0.145-34.107,0.389-39.848-32.904c-6.622-38.341-13.927-76.573-19.59-115.051
			c-1.883-12.822-7.001-17.037-19.054-15.375c-3.522,0.492-7.235-0.403-10.97-0.658c0-49.715-0.357-98.527,0.458-147.318
			c0.1-5.932,5.251-13.201,10.145-17.381c32.088-27.35,99.967-28.243,132.813-1.394c6.041,4.938,11.861,14.183,12.052,21.585
			c1.183,46.762,0.769,93.566,0.824,140.362C361.666,531.982,360.976,533.12,360.506,534.557z"/>
		<path fill="none" stroke="#000000" stroke-width="12" stroke-miterlimit="10" d="M233.203,286.849
			c0.257-28.843,21.852-49.894,50.741-49.448c28.81,0.446,49.56,21.987,49.19,51.054c-0.355,27.852-22.399,49.448-50.137,49.125
			C254.186,337.233,232.936,315.604,233.203,286.849z"/>
	</g>
	<path display="inline" fill="none" stroke="#000000" stroke-width="12" stroke-miterlimit="10" d="M773.317,641.884
		c23.958,17.436,37.567,37.418,37.567,58.658c0,67.966-139.354,123.061-311.255,123.061c-171.901,0-311.255-55.095-311.255-123.061
		c0-21.043,13.356-40.85,36.9-58.169"/>
</g>
<g id="Capa_7">
	<polyline fill="none" stroke="#000000" stroke-width="12" stroke-miterlimit="10" points="549.338,269.226 780.039,499.928 
		549.488,729.966 	"/>
	<polyline fill="none" stroke="#000000" stroke-width="12" stroke-miterlimit="10" points="405.743,269.226 636.446,499.928 
		405.895,729.966 	"/>
	<polyline fill="none" stroke="#000000" stroke-width="12" stroke-miterlimit="10" points="270.532,269.226 501.234,499.928 
		270.684,729.966 	"/>
</g>
<g id="Guias">
</g>
</svg>
