<?xml version="1.0" encoding="utf-8"?>
<!-- Generator: Adobe Illustrator 16.0.0, SVG Export Plug-In . SVG Version: 6.00 Build 0)  -->
<!DOCTYPE svg PUBLIC "-//W3C//DTD SVG 1.1//EN" "http://www.w3.org/Graphics/SVG/1.1/DTD/svg11.dtd">
<svg version="1.1" id="Capa_1" xmlns="http://www.w3.org/2000/svg" xmlns:xlink="http://www.w3.org/1999/xlink" x="0px" y="0px"
	 width="1000px" height="1000px" viewBox="0 0 1000 1000" enable-background="new 0 0 1000 1000" xml:space="preserve">
<path d="M583.114,500l282.288-282.286c5.251-5.251,8.201-12.373,8.201-19.799c0-7.426-2.95-14.548-8.201-19.799L821.884,134.6
	c-10.936-10.935-28.664-10.934-39.598,0L500,416.886L217.713,134.6c-10.934-10.935-28.662-10.935-39.597,0l-43.518,43.515
	c-5.251,5.251-8.202,12.374-8.202,19.799c0,7.426,2.95,14.548,8.201,19.799L416.885,500L134.598,782.287
	c-5.251,5.251-8.201,12.373-8.201,19.799c0,7.427,2.95,14.549,8.202,19.8l43.519,43.517c10.935,10.935,28.663,10.935,39.598-0.001
	L500,583.114l282.287,282.288c5.251,5.251,12.373,8.201,19.799,8.201c7.427,0,14.549-2.95,19.8-8.201l43.516-43.518
	c10.934-10.935,10.934-28.663-0.001-39.598L583.114,500z"/>
</svg>
