<?xml version="1.0" encoding="utf-8"?>
<!-- Generator: Adobe Illustrator 16.0.0, SVG Export Plug-In . SVG Version: 6.00 Build 0)  -->
<!DOCTYPE svg PUBLIC "-//W3C//DTD SVG 1.1//EN" "http://www.w3.org/Graphics/SVG/1.1/DTD/svg11.dtd">
<svg version="1.1" id="Capa_1" xmlns="http://www.w3.org/2000/svg" xmlns:xlink="http://www.w3.org/1999/xlink" x="0px" y="0px"
	 width="1000px" height="1000px" viewBox="0 0 1000 1000" enable-background="new 0 0 1000 1000" xml:space="preserve">
<g display="none">
	<path display="inline" fill="#010202" d="M384.693,907.168c-10,5-30,10-55.625,10c-59.375,0-104.063-37.5-104.063-106.563
		c0-65.938,44.688-110.625,110-110.625c26.25,0,42.813,5.625,50,9.375l-6.563,22.188c-10.313-5-25-8.75-42.5-8.75
		c-49.375,0-82.188,31.563-82.188,86.875c0,51.563,29.688,84.688,80.938,84.688c16.563,0,33.438-3.438,44.375-8.75L384.693,907.168z
		"/>
	<path display="inline" fill="#010202" d="M468.125,847.793l-21.875,66.25h-28.125l71.563-210.625H522.5l71.875,210.625h-29.063
		l-22.5-66.25H468.125z M537.188,826.543l-20.625-60.625c-4.688-13.75-7.813-26.25-10.938-38.438H505
		c-3.125,12.5-6.563,25.313-10.625,38.125l-20.625,60.938H537.188z"/>
	<path display="inline" fill="#010202" d="M636.872,880.918c12.188,7.5,30,13.75,48.75,13.75c27.813,0,44.063-14.688,44.063-35.938
		c0-19.688-11.25-30.938-39.688-41.875c-34.375-12.188-55.625-30-55.625-59.688c0-32.813,27.188-57.188,68.125-57.188
		c21.563,0,37.188,5,46.563,10.313l-7.5,22.188c-6.875-3.75-20.938-10-40-10c-28.75,0-39.688,17.188-39.688,31.563
		c0,19.688,12.813,29.375,41.875,40.625c35.625,13.75,53.75,30.938,53.75,61.875c0,32.5-24.063,60.625-73.75,60.625
		c-20.313,0-42.5-5.938-53.75-13.438L636.872,880.918z"/>
</g>
<g>
	<path fill="#010202" d="M333.912,815.293h-81.875v75.938h91.25v22.813H224.849V703.418h113.75v22.813h-86.563v66.563h81.875
		V815.293z"/>
	<path fill="#010202" d="M393.907,914.043V703.418h29.688l67.5,106.563c15.625,24.688,27.812,46.875,37.812,68.438l0.625-0.313
		c-2.5-28.125-3.125-53.75-3.125-86.563v-88.125h25.625v210.625h-27.5l-66.875-106.875c-14.688-23.438-28.75-47.5-39.375-70.313
		l-0.938,0.313c1.563,26.563,2.188,51.875,2.188,86.875v90H393.907z"/>
	<path fill="#010202" d="M775.15,904.668c-12.188,4.375-36.25,11.563-64.688,11.563c-31.875,0-58.125-8.125-78.75-27.813
		c-18.125-17.5-29.375-45.625-29.375-78.438c0.313-62.813,43.438-108.75,114.063-108.75c24.375,0,43.438,5.313,52.5,9.688
		l-6.563,22.188c-11.25-5-25.313-9.063-46.563-9.063c-51.25,0-84.688,31.875-84.688,84.688c0,53.438,32.188,85,81.25,85
		c17.813,0,30-2.5,36.25-5.625v-62.813h-42.813v-21.875h69.375V904.668z"/>
</g>
<path fill="#010202" d="M590.475,527.288c0-18.344,0-34.174,0-50.022c0-25.826,7.208-34.547,32.465-39.437
	c76.497-14.868,136.457-81.349,143.271-158.984C775.619,171.788,693.27,81.857,585.702,81.76
	c-57.093-0.039-114.225-0.079-171.317,0.059c-9.035,0.039-18.108,0.569-27.044,1.63c-83.431,10.036-148.948,78.913-156.156,164.031
	c-7.051,83.332,47.391,162.578,127.58,186.539c29.637,8.896,59.842,7.286,90.048,7.482c44.072,0.354,33.506-4.006,67.875,24.472
	C540.688,485.828,564.609,505.782,590.475,527.288 M500.623,23.606c38.356,0,76.909-2.573,115.01,0.511
	c101.439,8.189,189.132,88.752,208.575,188.718c24.156,124.104-45.859,241.373-166.526,278.315
	c-5.971,1.866-7.679,4.341-7.62,10.292c0.295,28.713,0,57.406,0.196,86.14c0.099,13.688-4.615,24.569-17.342,30.56
	c-12.766,6.029-24.098,2.436-34.526-6.344c-41.146-34.448-82.507-68.621-123.495-103.285c-6.383-5.401-12.688-7.503-20.995-7.464
	c-31.148,0.138-62.356,1.631-93.19-5.146c-115.384-25.315-194.552-127.992-189.426-245.949
	c5.067-117.072,97.688-215.899,214.329-225.916c38.062-3.279,76.653-0.53,115.011-0.53
	C500.623,23.547,500.623,23.587,500.623,23.606"/>
</svg>
