<?xml version="1.0" encoding="utf-8"?>
<!-- Generator: Adobe Illustrator 16.0.0, SVG Export Plug-In . SVG Version: 6.00 Build 0)  -->
<!DOCTYPE svg PUBLIC "-//W3C//DTD SVG 1.1//EN" "http://www.w3.org/Graphics/SVG/1.1/DTD/svg11.dtd">
<svg version="1.1" xmlns="http://www.w3.org/2000/svg" xmlns:xlink="http://www.w3.org/1999/xlink" x="0px" y="0px" width="1000px"
	 height="1000px" viewBox="0 0 1000 1000" enable-background="new 0 0 1000 1000" xml:space="preserve">
<g id="Base" display="none">
	<path display="inline" fill="none" stroke="#000000" stroke-width="12" d="M499.998,950C748.522,950,950,748.536,950,500.005
		C950,251.484,748.522,50,499.998,50C251.47,50,50,251.484,50,500.005C50,748.536,251.47,950,499.998,950z"/>
</g>
<g id="Sostenibilidad" display="none">
	<path display="inline" fill="none" stroke="#506FB3" stroke-width="32.7586" d="M498.502,951.265
		c247.718,0,448.51-201.12,448.51-449.151c0-248.075-200.792-449.121-448.51-449.121c-247.714,0-448.509,201.046-448.509,449.121
		C49.993,750.145,250.788,951.265,498.502,951.265z"/>
	<path display="inline" fill="#506FB3" d="M334.188,661.681c0-17.003,13.817-30.838,30.795-30.838
		c17.014,0,30.795,13.835,30.795,30.838c0,17.038-13.781,30.879-30.795,30.879C348.006,692.56,334.188,678.719,334.188,661.681
		 M468.063,640.443c0-17.002,13.817-30.839,30.865-30.839c16.98,0,30.798,13.837,30.798,30.839
		c0,17.043-13.818,30.879-30.798,30.879C481.879,671.322,468.063,657.486,468.063,640.443 M632.804,692.56
		c-17.013,0-30.797-13.841-30.797-30.879c0-17.003,13.784-30.838,30.797-30.838c16.979,0,30.796,13.835,30.796,30.838
		C663.6,678.719,649.782,692.56,632.804,692.56 M276.077,781.594v11.841h28.167v-11.841c0-33.547,27.244-60.832,60.739-60.832
		c18.363,0,35.271,8.541,46.744,22.627c-1.101,5.478-1.74,11.133-1.74,16.967v35.929h28.204v-35.929
		c0-33.546,27.207-60.826,60.736-60.826c33.462,0,60.669,27.28,60.669,60.826v35.929H587.8v-35.929
		c0-5.691-1.278-10.923-2.346-16.29c11.512-14.479,28.702-23.304,47.35-23.304c33.494,0,60.739,27.285,60.739,60.832v11.841h28.167
		v-11.841c0-33.936-19.289-63.143-47.242-78.19c10.728-10.671,17.335-25.433,17.335-41.723c0-32.58-26.499-59.05-58.999-59.05
		s-58.998,26.47-58.998,59.05c0,16.116,6.534,30.768,17.048,41.442c-5.754,3.09-11.116,6.938-16.125,11.275
		c-8.277-13.521-20.104-24.648-34.135-32.229c10.655-10.674,17.299-25.433,17.299-41.727c0-32.58-26.464-59.045-58.965-59.045
		c-32.569,0-59.032,26.465-59.032,59.045c0,16.294,6.641,31.053,17.332,41.727c-14.136,7.58-25.857,18.677-34.098,32.299
		c-5.044-4.338-10.371-8.256-16.197-11.346c10.513-10.675,17.051-25.326,17.051-41.442c0-32.58-26.498-59.05-58.999-59.05
		c-32.502,0-58.999,26.47-58.999,59.05c0,16.29,6.607,31.052,17.335,41.723C295.364,718.451,276.077,747.658,276.077,781.594
		 M713.896,347.662c28.842,40.052,46.674,88.356,49.442,140.753h-72.033c-1.278-41.583-8.241-80.817-19.75-116.1
		C686.759,365.057,700.753,356.729,713.896,347.662 M696.205,325.716c-10.726,7.29-22.162,14.082-34.453,20.097
		c-14.136-33.901-32.82-62.75-54.487-85.443C641.362,275.77,671.555,298.147,696.205,325.716 M636.533,356.912
		c-21.028,7.966-43.404,14.438-67.169,18.495c-5.647-49.761-15.131-98.283-30.086-130.012
		C579.7,261.862,614.156,302.271,636.533,356.912 M541.766,379.213c-14.066,1.42-28.345,2.382-42.838,2.382
		c-14.561,0-28.84-0.962-42.906-2.382c10.798-94.048,32.11-142.249,42.906-142.249C509.655,236.964,530.968,285.166,541.766,379.213
		 M458.506,245.394c-14.952,31.729-24.436,80.251-30.085,130.012c-23.762-4.057-46.139-10.528-67.167-18.495
		C383.63,302.271,418.084,261.862,458.506,245.394 M390.522,260.37c-21.667,22.693-40.351,51.542-54.487,85.443
		c-12.291-6.016-23.729-12.807-34.456-20.097C326.232,298.147,356.424,275.77,390.522,260.37 M326.232,372.315
		c-11.509,35.283-18.471,74.517-19.75,116.1h-72.036c2.771-52.396,20.603-100.701,49.445-140.753
		C297.034,356.729,311.029,365.057,326.232,372.315 M334.613,488.415c1.245-37.634,7.281-73.135,17.262-105.002
		c23.125,8.714,47.705,15.755,73.741,20.128c-2.558,30.13-3.907,59.584-4.191,84.874H334.613z M449.592,488.415
		c0.318-29.702,1.67-56.703,3.729-81.209c14.989,1.528,30.122,2.597,45.606,2.597c15.417,0,30.547-1.069,45.539-2.597
		c2.059,24.506,3.409,51.507,3.729,81.209H449.592z M572.172,403.542c26.034-4.373,50.58-11.415,73.737-20.128
		c9.981,31.867,16.021,67.368,17.264,105.002h-86.811C576.078,463.125,574.729,433.672,572.172,403.542 M792.217,502.5
		c0-161.989-131.601-293.743-293.29-293.743c-161.756,0-293.357,131.754-293.357,293.743c0,58.374,17.051,114.823,49.338,163.13
		l23.441-15.651c-26.567-39.768-41.061-85.654-43.618-133.389h72.036c0.851,27.28,3.585,54.206,9.269,79.963l27.494-6.048
		c-5.221-23.798-7.779-48.664-8.632-73.915h86.667c0.073,11.842,0.214,23.723,0.676,35.212l28.097-1.104
		c-0.428-11.168-0.533-22.654-0.64-34.107h98.389c-0.105,11.453-0.213,22.939-0.638,34.107l28.097,1.104
		c0.461-11.489,0.601-23.37,0.672-35.212h86.67c-0.854,25.251-3.41,50.117-8.632,73.915l27.494,6.048
		c5.681-25.757,8.452-52.683,9.269-79.963h72c-2.523,47.734-17.015,93.621-43.549,133.353l23.409,15.688
		C775.167,617.323,792.217,560.874,792.217,502.5"/>
</g>
<g id="Venta" display="none">
	<path display="inline" fill="#506FB3" d="M499.998,966c-62.903,0-123.932-12.322-181.393-36.626
		c-55.493-23.471-105.327-57.068-148.118-99.858c-42.791-42.791-76.389-92.625-99.86-148.117C46.323,623.938,34,562.908,34,500.005
		c0-62.901,12.323-123.93,36.627-181.391c23.471-55.493,57.069-105.328,99.86-148.12c42.792-42.793,92.625-76.392,148.118-99.865
		C376.066,46.324,437.096,34,499.998,34c62.901,0,123.931,12.324,181.392,36.629c55.493,23.473,105.328,57.072,148.12,99.864
		c42.792,42.793,76.391,92.628,99.862,148.121C953.677,376.075,966,437.104,966,500.005c0,62.903-12.323,123.933-36.628,181.394
		c-23.472,55.492-57.07,105.326-99.863,148.117c-42.791,42.79-92.626,76.388-148.119,99.858
		C623.929,953.678,562.899,966,499.998,966z M499.998,66C260.691,66,66,260.694,66,500.005C66,739.311,260.691,934,499.998,934
		C739.308,934,934,739.311,934,500.005C934,260.694,739.308,66,499.998,66z"/>
	<path display="inline" fill="#506FB3" d="M397.094,848.956h-32V507.204h97.441c20.727,0,32.277-6.83,36.465-22.302H258.942
		c-26.175,0-35.133,6.557-40.013,12.269c-7.98,9.342-11.86,26.734-11.86,53.168v95.01c0,16.757,3.947,36.602,22.298,38.196V550.34
		h32v298.616h-32V715.604c-17.994-0.66-32.556-8.713-42.218-23.389c-7.903-12.003-12.08-28.209-12.08-46.866v-95.01
		c0-34.857,6.206-58.356,19.53-73.954c17.982-21.049,45.333-23.484,64.343-23.484H532.83v16c0,44.678-25.621,70.302-70.295,70.302
		h-65.441V848.956z M329.228,848.956h-32V658.924h32V848.956z M831.433,688.499H421.812v-32h377.621V254.167H207.069v174.011h-32
		V222.167h656.363V688.499z M313.228,444.178c-39.412,0-70.285-32.577-70.285-74.164v-19.393c0-41.587,30.873-74.163,70.285-74.163
		c39.42,0,70.299,32.576,70.299,74.163v19.393C383.526,411.602,352.647,444.178,313.228,444.178z M313.228,308.459
		c-21.826,0-38.285,18.126-38.285,42.163v19.393c0,24.037,16.459,42.164,38.285,42.164c21.834,0,38.299-18.126,38.299-42.164
		v-19.393C351.526,326.585,335.062,308.459,313.228,308.459z"/>
	<path display="inline" fill="#506FB3" d="M590.088,614.536c-2.452,0-4.904-0.563-7.157-1.69l-95.006-47.518l14.314-28.619
		l87.85,43.938l119.732-59.871V391.247l-119.733-59.866l-119.729,59.866v57.978h-32v-67.867c0-6.061,3.424-11.601,8.844-14.311
		l135.73-67.867c4.504-2.252,9.807-2.252,14.311,0l135.733,67.866c5.421,2.71,8.845,8.25,8.845,14.311v149.305
		c0,6.061-3.424,11.601-8.844,14.311l-135.733,67.873C594.991,613.973,592.54,614.536,590.088,614.536z M606.088,557.813h-32
		v-98.699l-86.209-43.109l14.312-28.621l87.897,43.954l87.908-43.954l14.311,28.622l-86.219,43.109V557.813z"/>
</g>
<g id="Desarrollo" display="none">
	<path display="inline" fill="#506FB3" d="M500.854,967.299c-62.99,0-124.104-12.34-181.644-36.678
		c-55.57-23.504-105.473-57.148-148.324-99.998c-42.851-42.851-76.496-92.754-100-148.323
		c-24.338-57.54-36.678-118.654-36.678-181.644c0-62.988,12.34-124.101,36.678-181.642c23.504-55.57,57.149-105.474,100-148.325
		c42.852-42.852,92.755-76.498,148.324-100.003c57.541-24.339,118.655-36.68,181.645-36.68s124.104,12.341,181.645,36.68
		c55.57,23.505,105.474,57.151,148.325,100.002c42.852,42.852,76.497,92.756,100.001,148.326
		c24.338,57.541,36.679,118.654,36.679,181.642c0,62.989-12.341,124.104-36.679,181.644
		c-23.504,55.569-57.149,105.473-100.001,148.323c-42.852,42.85-92.755,76.494-148.325,99.998
		C624.958,954.959,563.844,967.299,500.854,967.299z M500.854,66.007c-239.665,0-434.646,194.983-434.646,434.649
		c0,239.663,194.981,434.643,434.646,434.643c239.666,0,434.649-194.979,434.649-434.643
		C935.504,260.99,740.521,66.007,500.854,66.007z"/>
	<path display="inline" fill="#506FB3" d="M498.553,950h-32V796.457l-66.435-0.494c-36.608-0.018-71.196-14.504-97.402-40.796
		c-22.368-22.441-36.154-50.995-39.701-81.683l-90.046-0.613l45.904-261.464c7.525-68.744,40.039-132.162,91.59-178.615
		c52.015-46.872,119.364-72.685,189.64-72.685c75.588,0,146.652,29.436,200.102,82.885s82.885,124.513,82.885,200.102v421.189h-32
		V443.094c0-138.395-112.592-250.986-250.986-250.986c-128.538,0-235.788,95.98-249.472,223.259l-0.149,1.056l-39.45,224.706
		l83.07,0.566v15.892c0,58.656,47.589,106.376,106.085,106.376h0.119l98.247,0.732V950z"/>
	<rect x="484.103" y="500.005" display="inline" fill="#506FB3" width="32" height="128.193"/>
	
		<rect x="541.076" y="412.874" transform="matrix(0.401 0.9161 -0.9161 0.401 768.8902 -225.7592)" display="inline" fill="#506FB3" width="32" height="124.385"/>
	
		<rect x="380.936" y="459.067" transform="matrix(0.9161 0.401 -0.401 0.9161 227.6853 -137.8244)" display="inline" fill="#506FB3" width="124.386" height="32"/>
	<path display="inline" fill="#506FB3" d="M500.103,686.922c-2.259,0-4.517-0.478-6.621-1.434l-156.679-71.215
		c-5.712-2.597-9.379-8.292-9.379-14.566V428.79c0-6.274,3.667-11.97,9.379-14.566l156.679-71.216c4.206-1.912,9.035-1.912,13.242,0
		l156.678,71.216c5.712,2.596,9.379,8.292,9.379,14.566v170.917c0,6.274-3.667,11.97-9.379,14.566l-156.678,71.215
		C504.62,686.444,502.361,686.922,500.103,686.922z M359.424,589.404l140.679,63.942l140.678-63.942V439.092l-140.678-63.943
		l-140.679,63.943V589.404z"/>
</g>
<g id="Engine" display="none">
	<path display="inline" fill="#506FB3" d="M500,966c-62.903,0-123.932-12.323-181.394-36.627
		c-55.493-23.471-105.327-57.069-148.119-99.86c-42.791-42.791-76.389-92.625-99.861-148.117C46.323,623.935,34,562.906,34,500.004
		c0-62.901,12.323-123.929,36.627-181.391c23.472-55.493,57.07-105.328,99.861-148.12c42.792-42.792,92.626-76.392,148.119-99.864
		C376.068,46.324,437.098,34,500,34s123.933,12.324,181.394,36.629c55.493,23.472,105.327,57.072,148.119,99.864
		c42.791,42.792,76.389,92.627,99.86,148.12C953.677,376.075,966,437.103,966,500.004c0,62.902-12.323,123.931-36.627,181.392
		c-23.472,55.492-57.069,105.326-99.861,148.117c-42.791,42.791-92.625,76.39-148.118,99.86C623.933,953.677,562.902,966,500,966z
		 M500,66C260.691,66,66,260.693,66,500.004C66,739.311,260.691,934,500,934s434-194.689,434-433.996C934,260.693,739.309,66,500,66
		z"/>
	<rect x="484.103" y="500.005" display="inline" fill="#506FB3" width="32" height="128.193"/>
	
		<rect x="541.076" y="412.874" transform="matrix(0.401 0.9161 -0.9161 0.401 768.8902 -225.7592)" display="inline" fill="#506FB3" width="32" height="124.385"/>
	
		<rect x="380.936" y="459.067" transform="matrix(0.9161 0.401 -0.401 0.9161 227.6853 -137.8244)" display="inline" fill="#506FB3" width="124.386" height="32"/>
	<path display="inline" fill="#506FB3" d="M500.103,686.922c-2.259,0-4.517-0.478-6.621-1.434l-156.679-71.215
		c-5.712-2.597-9.379-8.292-9.379-14.566V428.79c0-6.274,3.667-11.97,9.379-14.566l156.679-71.216c4.206-1.912,9.035-1.912,13.242,0
		l156.678,71.216c5.712,2.596,9.379,8.292,9.379,14.566v170.917c0,6.274-3.667,11.97-9.379,14.566l-156.678,71.215
		C504.62,686.444,502.361,686.922,500.103,686.922z M359.424,589.404l140.679,63.942l140.678-63.942V439.092l-140.678-63.943
		l-140.679,63.943V589.404z"/>
	<path display="inline" fill="#506FB3" d="M556.483,833.793c-5.361,0-10.495-2.703-13.488-7.394l-26.961-42.247h-26.522
		l-26.959,42.247c-3.826,5.996-11.153,8.749-17.98,6.749l-52.076-15.234c-6.724-1.967-11.386-8.079-11.505-15.083l-0.896-52.483
		l-22.509-13.106l-45.864,25.443c-6.242,3.465-14.025,2.373-19.074-2.677l-38.127-38.12c-5.05-5.049-6.143-12.833-2.678-19.077
		l25.461-45.891l-12.975-22.474l-52.477-0.892c-6.99-0.119-13.093-4.763-15.073-11.467l-15.379-52.08
		c-2.019-6.838,0.729-14.186,6.74-18.021l42.252-26.955v-26.517l-42.253-26.961c-5.997-3.827-8.748-11.153-6.75-17.981
		l15.236-52.082c1.967-6.723,8.079-11.385,15.083-11.505l52.489-0.896l13.102-22.507l-25.444-45.865
		c-3.464-6.244-2.371-14.027,2.678-19.076l38.127-38.127c5.049-5.049,12.833-6.142,19.079-2.675l45.887,25.47l22.469-12.981
		l0.896-52.475c0.119-6.989,4.762-13.092,11.466-15.072l52.076-15.378c6.836-2.017,14.184,0.729,18.019,6.738l26.959,42.248h26.522
		l26.961-42.248c3.826-5.998,11.154-8.746,17.981-6.749l52.082,15.243c6.723,1.968,11.384,8.079,11.504,15.083l0.896,52.477
		l22.505,13.105l45.864-25.437c6.24-3.463,14.023-2.371,19.072,2.677l38.127,38.12c5.051,5.05,6.143,12.834,2.678,19.079
		l-25.467,45.889l12.973,22.468l52.486,0.897c6.989,0.119,13.092,4.762,15.071,11.466l15.378,52.074
		c2.02,6.837-0.729,14.185-6.738,18.02l-42.253,26.961v26.517l42.252,26.955c5.998,3.827,8.749,11.155,6.75,17.983l-15.242,52.08
		c-1.967,6.723-8.078,11.384-15.081,11.504l-52.482,0.898l-13.104,22.508l25.438,45.865c3.463,6.244,2.37,14.027-2.68,19.075
		l-38.128,38.12c-5.05,5.051-12.835,6.14-19.077,2.675l-45.882-25.465l-22.474,12.978l-0.89,52.479
		c-0.119,6.99-4.762,13.094-11.467,15.073l-52.075,15.376C559.514,833.58,557.989,833.793,556.483,833.793z M412.785,790.508
		l29.25,8.558l25.219-39.521c2.939-4.605,8.024-7.393,13.488-7.393h44.062c5.463,0,10.549,2.787,13.487,7.393l25.204,39.494
		l29.265-8.642l0.844-49.787c0.096-5.618,3.131-10.774,7.997-13.584l38.161-22.036c4.867-2.812,10.852-2.861,15.766-0.135
		l43.256,24.008l21.068-21.063l-23.999-43.27c-2.734-4.932-2.672-10.938,0.165-15.811l22.215-38.159
		c2.816-4.838,7.956-7.852,13.553-7.948l49.726-0.852l8.562-29.254l-39.523-25.214c-4.606-2.939-7.395-8.025-7.395-13.489v-44.059
		c0-5.463,2.788-10.549,7.394-13.488l39.499-25.204l-8.643-29.264l-49.796-0.851c-5.617-0.096-10.773-3.131-13.583-7.997
		l-22.03-38.154c-2.81-4.867-2.86-10.851-0.134-15.765l24.009-43.261l-21.068-21.064l-43.271,23.999
		c-4.931,2.735-10.938,2.673-15.813-0.166l-38.155-22.22c-4.837-2.816-7.851-7.957-7.946-13.553l-0.849-49.718l-29.257-8.563
		l-25.22,39.52c-2.938,4.605-8.024,7.393-13.487,7.393h-44.062c-5.463,0-10.549-2.788-13.488-7.393l-25.202-39.494l-29.266,8.642
		l-0.85,49.782c-0.096,5.617-3.13,10.771-7.994,13.581l-38.155,22.043c-4.868,2.812-10.854,2.864-15.769,0.135l-43.262-24.013
		l-21.068,21.068l24.004,43.27c2.735,4.931,2.673,10.938-0.163,15.811l-22.213,38.161c-2.816,4.839-7.957,7.853-13.555,7.949
		l-49.73,0.849l-8.559,29.255l39.526,25.221c4.606,2.939,7.394,8.025,7.394,13.488v44.059c0,5.464-2.788,10.55-7.395,13.489
		L215.5,572.491l8.643,29.268l49.787,0.846c5.619,0.096,10.775,3.132,13.585,7.998l22.031,38.161
		c2.809,4.866,2.86,10.85,0.134,15.763l-24.002,43.261l21.068,21.064l43.271-24.005c4.932-2.735,10.938-2.673,15.813,0.164
		l38.162,22.221c4.837,2.817,7.851,7.957,7.946,13.554L412.785,790.508z"/>
</g>
<g id="Face" display="none">
	<path display="inline" fill="#506FB3" d="M930.825,319.015c-23.504-55.57-57.149-105.474-100.001-148.326
		c-42.852-42.852-92.755-76.498-148.325-100.002c-57.541-24.339-118.655-36.68-181.645-36.68S376.751,46.348,319.21,70.687
		c-55.569,23.505-105.473,57.151-148.324,100.003c-42.851,42.852-76.496,92.755-100,148.325
		c-24.338,57.541-36.678,118.654-36.678,181.642c0,62.989,12.34,124.104,36.678,181.644c23.504,55.569,57.149,105.473,100,148.323
		c42.851,42.85,92.754,76.494,148.324,99.998c57.541,24.338,118.654,36.678,181.644,36.678c62.989,0,124.104-12.34,181.645-36.678
		c55.57-23.504,105.474-57.148,148.325-99.998c42.852-42.851,76.497-92.754,100.001-148.323
		c24.338-57.54,36.679-118.654,36.679-181.644C967.504,437.668,955.163,376.555,930.825,319.015z M500.854,935.299
		c-0.769,0-1.534-0.011-2.302-0.015V764.695l-98.247-0.732h-0.119c-58.496,0-106.085-47.72-106.085-106.376v-15.892l-83.07-0.566
		l39.45-224.706l0.149-1.056c13.684-127.279,120.934-223.259,249.472-223.259c138.395,0,250.986,112.592,250.986,250.986v412.76
		C680.289,905.878,593.944,935.299,500.854,935.299z M783.089,830.94V443.094c0-75.588-29.436-146.652-82.885-200.102
		s-124.514-82.885-200.102-82.885c-70.276,0-137.625,25.813-189.64,72.685c-51.551,46.453-84.064,109.871-91.59,178.615
		l-45.904,261.464l90.046,0.613c3.547,30.688,17.333,59.241,39.701,81.683c26.206,26.292,60.793,40.778,97.402,40.796l66.435,0.494
		v137.497C242.86,916.408,66.208,728.775,66.208,500.656c0-239.667,194.981-434.649,434.646-434.649
		c239.666,0,434.649,194.983,434.649,434.649C935.504,632.692,876.318,751.16,783.089,830.94z"/>
</g>
<g id="People" display="none">
	<g display="inline">
		<path fill="#506FB3" d="M929.373,318.609c-23.471-55.493-57.068-105.328-99.859-148.12
			c-42.791-42.792-92.624-76.39-148.116-99.861C623.938,46.323,562.91,34,500.009,34c-62.904,0-123.934,12.323-181.396,36.627
			c-55.494,23.472-105.329,57.07-148.121,99.862c-42.792,42.792-76.391,92.626-99.863,148.12C46.323,376.071,34,437.102,34,500.005
			c0,62.905,12.323,123.935,36.628,181.396c23.472,55.492,57.071,105.326,99.863,148.116c42.792,42.79,92.627,76.387,148.122,99.857
			C376.075,953.678,437.105,966,500.009,966c62.901,0,123.93-12.322,181.389-36.625c55.492-23.471,105.325-57.067,148.116-99.857
			s76.389-92.624,99.859-148.116C953.677,623.94,966,562.91,966,500.005C966,437.102,953.677,376.071,929.373,318.609z M500.009,934
			C260.695,934,66,739.311,66,500.005C66,260.694,260.695,66,500.009,66C739.313,66,934,260.694,934,500.005
			C934,739.311,739.313,934,500.009,934z"/>
		<path fill="#506FB3" d="M385.247,569.348c-0.013,3.353,0.453,6.354,0.864,9.004c0.153,0.982,0.314,2.013,0.451,3.112l1.744,14.026
			h14.134c2.308,0,4.523,0.031,6.674,0.062c2.174,0.03,4.286,0.06,6.362,0.06c3.361,0,6.149-0.077,8.737-0.24
			c0.422-0.025,0.82-0.039,1.183-0.041c0.192,0.633,0.417,1.512,0.647,2.705c6.73,34.969,14.052,70.369,21.133,104.604
			c4.965,24.007,10.1,48.83,14.977,73.249c3.896,19.522,16.665,23.62,26.69,23.62c0.971,0,1.992-0.039,3.022-0.113
			c4.891-0.351,9.374-0.521,13.705-0.521c4.287,0,8.417,0.176,12.253,0.52c1.313,0.12,2.594,0.181,3.807,0.181
			c8.415,0,23.118-3.182,27.04-24.488c6.932-37.597,14.236-75.808,21.301-112.761c3.075-16.09,6.151-32.181,9.207-48.27l0.02-0.1
			c1.341-7.046,2.722-14.305,3.856-17.255c3.03-0.747,10.262-1.213,17.292-1.665c2.735-0.165,4.759-0.886,6.103-1.364
			c0.334-0.119,0.751-0.27,1.309-0.443l10.059-3.134l1.095-10.479c0.08-0.765,0.181-1.498,0.277-2.211
			c0.276-2.057,0.59-4.389,0.59-7.124c-0.058-16.857-0.17-33.986-0.278-50.552c-0.252-38.382-0.513-78.071-0.101-117.039
			c0.261-25.311-10.913-43.872-33.218-55.171c-17.783-8.999-35.785-15.096-53.793-18.278c26.829-9.79,46.358-32.657,51.683-62.905
			c3.578-20.376,0.247-40.093-9.633-57.018c-9.896-16.954-25.408-29.48-44.853-36.224c-2.054-0.713-4.268-1.674-6.611-2.69
			c-1.212-0.526-2.426-1.052-3.647-1.561l-2.952-1.229h-25.749l-2.519,0.862c-0.985,0.337-1.969,0.68-2.954,1.023
			c-2.45,0.854-4.765,1.66-7.053,2.357c-39.717,12.222-63.988,51.331-57.71,92.988c4.558,30.297,25.28,54.514,52.821,64.575
			c-18.936,3.461-37.844,10.154-56.496,20.061c-21.151,11.226-31.735,29.239-31.456,53.536c0.426,37.846,0.277,76.399,0.134,113.682
			C385.326,533.969,385.257,551.825,385.247,569.348z M452.033,260.081c-3.962-26.29,10.627-49.992,35.436-57.626
			c2.851-0.869,5.577-1.818,8.213-2.737c0.098-0.034,0.196-0.068,0.294-0.103H509.9c0.112,0.048,0.224,0.097,0.336,0.146
			c2.783,1.208,5.661,2.456,8.857,3.566c24.937,8.648,38.069,31.208,33.459,57.469c-4.586,26.055-24.413,42.144-51.557,41.675
			C476.259,302.064,455.667,284.239,452.033,260.081z M417.257,402.653c-0.142-12.326,3.913-19.309,14.464-24.909
			c23.861-12.674,47.937-19.1,71.559-19.1c22.568,0,45.599,5.863,68.445,17.424c11.414,5.783,15.809,13.154,15.674,26.287
			c-0.415,39.239-0.153,79.067,0.1,117.583c0.095,14.412,0.191,29.252,0.253,43.915c-11.501,1.005-19.429,2.728-26.143,8.696
			c-8.555,7.605-10.548,18.075-13.85,35.422l-0.02,0.106c-3.055,16.082-6.128,32.16-9.201,48.237
			c-6.948,36.345-14.129,73.907-20.969,110.959c-3.864-0.267-7.888-0.401-12.001-0.401c-4.038,0-8.156,0.123-12.51,0.376
			c-4.756-23.758-9.73-47.81-14.546-71.093c-7.059-34.128-14.358-69.419-21.048-104.175c-4.564-23.682-19.924-28.652-32.004-28.652
			c-1.023,0-2.094,0.033-3.221,0.102c-1.491,0.094-3.105,0.149-4.987,0.17c0.02-15.638,0.081-31.44,0.14-46.779
			C417.537,479.42,417.686,440.745,417.257,402.653z"/>
		<path fill="#506FB3" d="M189.374,534.992v14.945l14.911,1.018c0.761,0.052,1.707,0.169,2.708,0.292
			c2.082,0.258,4.442,0.549,7.116,0.549c1.553,0,3.009-0.099,4.421-0.296c0.242-0.033,0.474-0.062,0.697-0.087
			c0.112,0.53,0.229,1.172,0.342,1.942c4.032,27.391,8.948,54.995,13.703,81.691c1.971,11.065,4.009,22.509,5.95,33.748
			c3.074,17.826,4.929,28.586,12.554,36.485c9.384,9.721,22.559,9.721,36.507,9.721c1.838,0,3.797-0.009,5.884-0.018l0.737-0.003
			c16.286-0.068,25.854-8.188,28.439-24.151c5.365-33.337,11.288-67.22,17.016-99.986c1.721-9.844,3.442-19.688,5.152-29.539
			c0.556-3.208,1.161-6.701,1.697-9.12c2.515-0.28,6.166-0.515,9.545-0.732c2.482-0.156,4.529-0.646,6.024-1.003
			c0.314-0.075,0.626-0.153,0.94-0.217l9.107-1.866l2.867-8.767c0.048-0.127,0.1-0.249,0.148-0.368
			c0.638-1.574,1.826-4.503,1.826-8.403c-0.013-10.617-0.001-21.234,0.011-31.851c0.039-35.666,0.08-72.545-0.84-108.904
			c-0.343-13.345-9.248-26.472-17.92-33.562c-9.211-7.529-20.857-13.41-33.991-17.379c14.617-11.812,23.946-29.877,24.208-50.473
			c0.479-37.761-27.439-66.674-64.942-67.255c-0.384-0.006-0.763-0.009-1.145-0.009c-37.204,0-65.509,28.078-65.842,65.306
			c-0.203,21.749,9.125,40.51,24.299,52.584c-13.967,4.245-26.284,10.63-35.918,18.843c-7.484,6.393-15.552,17.441-15.75,29.28
			c-0.626,37.5-0.562,75.774-0.499,112.788C189.354,511.752,189.374,523.348,189.374,534.992z M283.045,253.394
			c0.218,0,0.433,0.001,0.65,0.005c19.946,0.309,33.696,14.641,33.44,34.852c-0.242,19.003-14.654,33.333-33.524,33.333
			l-0.422-0.002c-19.878-0.239-34.172-14.783-33.987-34.589C249.379,267.209,263.296,253.394,283.045,253.394z M221.821,388.458
			c0.453-1.3,2.315-4.093,4.535-5.989c12.642-10.775,34.073-17.208,57.331-17.208c22.15,0,42.702,5.991,54.978,16.024
			c3.218,2.631,6.045,7.715,6.183,9.602c0.909,35.93,0.869,72.595,0.83,108.053c-0.008,7.084-0.016,14.167-0.016,21.246
			c-8.529,0.821-14.908,2.352-20.471,7.296c-7.441,6.614-8.939,15.265-11.208,28.354c-1.707,9.833-3.426,19.664-5.145,29.497
			c-5.59,31.976-11.366,65.014-16.644,97.658c-1.362,0.006-2.665,0.01-3.911,0.01c-2.991,0-10.31,0-13.596-0.569
			c-1.213-3.313-2.593-11.311-3.932-19.078c-1.956-11.326-4.001-22.812-5.979-33.918c-4.713-26.463-9.586-53.826-13.547-80.734
			c-3.699-25.189-20.095-29.275-29.865-29.394c-0.007-6.401-0.018-12.79-0.029-19.167
			C221.27,461.753,221.208,425.483,221.821,388.458z"/>
		<path fill="#506FB3" d="M782.732,628.947l-13.19,18.124c1.323-7.7,2.651-15.398,3.973-23.099
			c3.681-21.443,7.362-42.888,11.063-64.324c0.45-2.605,0.936-5.416,1.378-7.565c2.312-0.171,5.384-0.295,8.252-0.41
			c2.757-0.111,5.151-0.619,6.735-0.956c0.317-0.067,0.619-0.135,0.902-0.185l13.192-2.352v-13.4
			c0-11.894,0.026-23.745,0.054-35.565c0.084-37.458,0.172-76.193-0.649-114.206c-0.348-16.103-16.686-28.464-19.965-30.784
			c-9.072-6.409-19.626-11.425-31.128-14.936c15.145-12.181,24.862-30.843,24.862-51.743c-0.013-36.455-29.939-66.112-66.73-66.112
			c-36.378,0-65.276,28.704-65.79,65.341c-0.257,17.846,6.484,34.682,18.981,47.405c1.952,1.988,4.019,3.819,6.165,5.524
			c-12.835,4.016-24.517,9.857-34.174,17.269c-8.796,6.749-17.793,19.003-18.066,31.202c-0.748,36.941-0.671,73.178-0.588,111.543
			c0.025,11.87,0.051,23.824,0.051,35.888v16h16c1.458,0,2.891,0.043,4.407,0.088c1.531,0.046,3.113,0.093,4.732,0.093
			c1.733,0,3.293-0.055,4.765-0.169c2.107,15.175,4.862,30.326,7.53,44.997c1.192,6.552,2.424,13.326,3.572,19.966
			c2.871,16.59,5.734,33.187,8.604,49.815l8.241,47.735h71.11l2.682-12.692c0.309-1.461,0.617-2.856,0.916-4.209
			c0.68-3.076,1.321-5.981,1.859-9.087c1.752-10.146,3.491-20.296,5.236-30.444c13.178,10.32,27.17,25.389,27.17,42.843
			c0,25.48-29.541,51.774-81.048,72.138c-56.96,22.521-133.033,34.923-214.207,34.923S342.382,795.2,285.422,772.681
			c-51.507-20.364-81.047-46.658-81.047-72.139c0-18.953,16.521-35.085,30.381-45.28l-18.962-25.777
			c-35.886,26.399-43.419,53.213-43.419,71.058c0,39.887,35.969,76.074,101.282,101.896
			c60.616,23.966,140.868,37.164,225.973,37.164c85.104,0,165.356-13.198,225.973-37.164
			c65.313-25.822,101.282-62.01,101.282-101.896C826.885,682.539,819.225,655.505,782.732,628.947z M721.499,253.434
			c19.134,0,34.705,15.308,34.712,34.118c0,18.966-15.444,34.396-34.427,34.396l-0.146,0c-9.142-0.033-17.714-3.652-24.137-10.191
			c-6.461-6.579-9.947-15.287-9.814-24.527C687.953,268.278,702.797,253.434,721.499,253.434z M753.044,554.203
			c-3.703,21.448-7.386,42.902-11.068,64.356c-3.639,21.196-7.276,42.394-10.933,63.572h-18.185l-3.654-21.175
			c-2.87-16.636-5.734-33.237-8.606-49.831c-1.171-6.774-2.416-13.618-3.619-20.236c-2.705-14.872-5.502-30.251-7.539-45.279
			c-3.221-23.781-20.398-26.349-27.634-26.349c-0.58,0-1.165,0.013-1.76,0.039c-0.01-6.579-0.023-13.127-0.038-19.651
			c-0.081-38.015-0.158-73.93,0.572-110.316c0.523-1.544,2.942-4.962,5.563-6.973c14.036-10.772,34.691-16.95,56.67-16.95
			c20.358,0,39.749,5.449,53.19,14.945c3.193,2.259,5.635,5.143,6.472,6.57c0.784,37.242,0.698,75.351,0.615,112.217
			c-0.016,7.016-0.032,14.043-0.042,21.083c-7.729,0.646-13.638,2.085-18.918,6.619
			C756.661,533.259,755.145,542.043,753.044,554.203z"/>
	</g>
</g>
<g id="Arrows" display="none">
	<path display="inline" fill="#506FB3" d="M549.488,745.966c-4.101,0-8.201-1.566-11.326-4.699
		c-6.241-6.255-6.23-16.386,0.025-22.627l219.212-218.725L538.024,280.54c-6.249-6.249-6.249-16.379,0-22.627
		c6.248-6.249,16.379-6.249,22.627,0l230.701,230.701c3.003,3.003,4.688,7.076,4.687,11.323c-0.002,4.247-1.692,8.318-4.699,11.317
		L560.789,741.292C557.666,744.408,553.577,745.966,549.488,745.966z"/>
	<path display="inline" fill="#506FB3" d="M405.895,745.966c-4.101,0-8.201-1.566-11.326-4.699
		c-6.242-6.255-6.23-16.386,0.025-22.627l219.213-218.725L394.43,280.54c-6.249-6.249-6.249-16.379,0-22.627
		c6.249-6.249,16.379-6.249,22.627,0L647.76,488.614c3.003,3.003,4.688,7.076,4.687,11.323c-0.002,4.247-1.692,8.318-4.699,11.317
		L417.196,741.292C414.072,744.408,409.983,745.966,405.895,745.966z"/>
	<path display="inline" fill="#506FB3" d="M270.684,745.966c-4.101,0-8.201-1.566-11.326-4.699
		c-6.242-6.255-6.23-16.386,0.025-22.627l219.212-218.725L259.218,280.54c-6.248-6.249-6.248-16.379,0-22.627
		c6.249-6.249,16.379-6.249,22.627,0l230.702,230.701c3.003,3.003,4.688,7.076,4.687,11.323c-0.002,4.247-1.692,8.318-4.699,11.317
		l-230.55,230.038C278.862,744.408,274.772,745.966,270.684,745.966z"/>
</g>
<g id="PointMap">
	<path fill="#506FB3" d="M499.998,966c-62.903,0-123.932-12.322-181.393-36.626c-55.493-23.471-105.327-57.068-148.118-99.858
		c-42.791-42.791-76.389-92.625-99.86-148.117C46.323,623.938,34,562.908,34,500.005c0-62.901,12.323-123.93,36.627-181.391
		c23.471-55.493,57.069-105.328,99.86-148.12c42.792-42.793,92.625-76.392,148.118-99.865C376.066,46.324,437.096,34,499.998,34
		c62.901,0,123.931,12.324,181.392,36.629c55.493,23.473,105.328,57.072,148.12,99.864c42.792,42.793,76.391,92.628,99.862,148.121
		C953.677,376.075,966,437.104,966,500.005c0,62.903-12.323,123.933-36.628,181.394c-23.472,55.492-57.07,105.326-99.863,148.117
		c-42.791,42.79-92.626,76.388-148.119,99.858C623.929,953.678,562.899,966,499.998,966z M499.998,66
		C260.691,66,66,260.694,66,500.005C66,739.311,260.691,934,499.998,934C739.308,934,934,739.311,934,500.005
		C934,260.694,739.308,66,499.998,66z"/>
	<path fill="#506FB3" d="M500,605c-57.897,0-105-47.103-105-104.999C395,442.103,442.103,395,500,395s105,47.103,105,105.001
		C605,557.897,557.896,605,500,605z M500,427c-40.252,0-73,32.748-73,73.001C427,540.253,459.748,573,500,573
		c40.252,0,73-32.747,73-72.999C573,459.748,540.252,427,500,427z"/>
	<path fill="#506FB3" d="M499.999,683C399.093,683,317,600.907,317,500.002C317,399.094,399.093,317,499.999,317
		C600.906,317,683,399.094,683,500.002C683,600.907,600.906,683,499.999,683z M499.999,349C416.738,349,349,416.739,349,500.002
		C349,583.263,416.738,651,499.999,651C583.262,651,651,583.263,651,500.002C651,416.739,583.262,349,499.999,349z"/>
	<path fill="#506FB3" d="M499.999,683C399.093,683,317,600.907,317,500.002C317,399.094,399.093,317,499.999,317
		C600.906,317,683,399.094,683,500.002C683,600.907,600.906,683,499.999,683z M499.999,349C416.738,349,349,416.739,349,500.002
		C349,583.263,416.738,651,499.999,651C583.262,651,651,583.263,651,500.002C651,416.739,583.262,349,499.999,349z"/>
	<path fill="#506FB3" d="M499.999,747c-65.977,0-128.003-25.691-174.654-72.342C278.692,628.007,253,565.979,253,500.003
		c0-65.975,25.692-128.002,72.344-174.655C371.996,278.693,434.023,253,499.999,253c65.975,0,128.002,25.693,174.656,72.348
		C721.308,372.001,747,434.028,747,500.003c0,65.977-25.693,128.004-72.346,174.655C628.002,721.309,565.975,747,499.999,747z
		 M499.999,285C381.448,285,285,381.45,285,500.003C285,618.553,381.448,715,499.999,715C618.551,715,715,618.553,715,500.003
		C715,381.45,618.551,285,499.999,285z"/>
	<path fill="#506FB3" d="M499.998,833c-88.948,0-172.571-34.637-235.465-97.53C201.638,672.576,167,588.952,167,500.004
		c0-88.946,34.638-172.569,97.532-235.466C327.428,201.64,411.051,167,499.998,167c88.946,0,172.57,34.639,235.467,97.537
		C798.361,327.435,833,411.059,833,500.004c0,88.948-34.639,172.571-97.535,235.466C672.569,798.363,588.945,833,499.998,833z
		 M499.998,199C334.027,199,199,334.03,199,500.004C199,665.974,334.027,801,499.998,801C665.971,801,801,665.974,801,500.004
		C801,334.03,665.971,199,499.998,199z"/>
</g>
<g id="Crecimiento" display="none">
	<g display="inline">
		<path fill="#506FB3" d="M963.771,502.771c0-62.846-12.282-123.821-36.507-181.231c-23.396-55.447-56.886-105.24-99.54-147.997
			c-42.657-42.76-92.337-76.333-147.659-99.789c-57.287-24.288-118.133-36.603-180.847-36.603
			c-62.714,0-123.561,12.315-180.848,36.603c-55.322,23.455-105.001,57.029-147.66,99.789
			c-42.654,42.757-76.145,92.55-99.541,147.997c-24.224,57.41-36.507,118.385-36.507,181.231s12.283,123.822,36.506,181.235
			c13.163,31.197,29.52,60.604,48.907,87.976c-0.002,0.098-0.015,0.192-0.015,0.29c0,7.318,4.919,13.476,11.627,15.38
			c11.999,15.513,25.012,30.32,39.021,44.364c42.658,42.765,92.338,76.343,147.66,99.801
			c57.288,24.292,118.134,36.609,180.848,36.609s123.56-12.317,180.848-36.609c55.321-23.458,105.001-57.036,147.659-99.801
			c14.599-14.636,28.123-30.096,40.537-46.324c3.17-2.059,5.563-5.204,6.65-8.914c20.899-28.724,38.417-59.744,52.352-92.771
			C951.488,626.593,963.771,565.616,963.771,502.771z M66.663,502.771c0-239.099,194.043-433.62,432.555-433.62
			c238.511,0,432.553,194.521,432.553,433.62c0,94.566-30.354,182.155-81.801,253.501h-67.546V401.458c0-8.836-7.163-16-16-16
			H619.285c-8.837,0-16,7.164-16,16v354.814h-29.598V438.565c0-8.836-7.163-16-16-16H408.703c-8.836,0-16,7.164-16,16v317.706
			h-29.525V512.706c0-8.837-7.164-16-16-16H202.632c-8.836,0-16,7.163-16,16v243.565h-38.168
			C97.018,684.926,66.663,597.337,66.663,502.771z M635.285,756.271V417.458h115.139v338.814H635.285z M424.703,756.271V454.565
			h116.984v301.706H424.703z M218.632,756.271V528.706h112.545v227.565H218.632z M499.218,936.426
			c-129.55,0-245.975-57.398-325.318-148.154h28.037c0.232,0.01,0.461,0.035,0.696,0.035h144.545c0.235,0,0.464-0.025,0.696-0.035
			h60.133c0.232,0.01,0.461,0.035,0.696,0.035h148.984c0.235,0,0.464-0.025,0.696-0.035h60.205c0.232,0.01,0.461,0.035,0.696,0.035
			h147.139c0.235,0,0.464-0.025,0.696-0.035h57.414C745.191,879.027,628.768,936.426,499.218,936.426z"/>
		<path fill="#506FB3" d="M324.49,379.004c1.391,0,2.805-0.183,4.212-0.565l282.271-76.829l-13.257,23.388
			c-4.357,7.688-1.657,17.452,6.03,21.809c2.492,1.413,5.201,2.083,7.875,2.083c5.574,0,10.989-2.918,13.935-8.113l32.196-56.804
			c0.084-0.148,0.148-0.302,0.227-0.452c0.161-0.306,0.324-0.61,0.466-0.926c0.105-0.236,0.189-0.476,0.282-0.715
			c0.096-0.246,0.199-0.489,0.282-0.74c0.089-0.266,0.157-0.534,0.231-0.802c0.064-0.233,0.136-0.464,0.19-0.701
			c0.061-0.269,0.103-0.538,0.149-0.808c0.043-0.245,0.092-0.487,0.124-0.735c0.032-0.26,0.046-0.52,0.066-0.78
			c0.02-0.26,0.046-0.519,0.054-0.781c0.007-0.258-0.006-0.514-0.011-0.771c-0.006-0.264-0.004-0.526-0.022-0.792
			c-0.021-0.289-0.063-0.574-0.099-0.86c-0.029-0.23-0.047-0.46-0.086-0.691c-0.081-0.479-0.187-0.952-0.311-1.421
			c-0.01-0.039-0.015-0.078-0.025-0.116c0-0.001-0.001-0.002-0.001-0.004c-0.139-0.507-0.303-1.006-0.49-1.497
			c-0.087-0.229-0.192-0.445-0.289-0.667c-0.11-0.255-0.213-0.512-0.337-0.761c-0.126-0.253-0.27-0.494-0.407-0.738
			c-0.117-0.208-0.228-0.42-0.354-0.623c-0.149-0.239-0.315-0.465-0.477-0.695c-0.138-0.197-0.27-0.397-0.417-0.588
			c-0.166-0.215-0.347-0.417-0.523-0.623c-0.163-0.19-0.319-0.385-0.492-0.568c-0.186-0.197-0.385-0.378-0.579-0.565
			c-0.181-0.173-0.355-0.352-0.546-0.518c-0.228-0.199-0.469-0.379-0.707-0.564c-0.173-0.134-0.338-0.276-0.518-0.404
			c-0.347-0.248-0.707-0.473-1.072-0.692c-0.082-0.049-0.156-0.106-0.24-0.155l-0.03-0.018c-0.007-0.003-0.013-0.007-0.019-0.011
			l-56.304-32.444c-7.653-4.409-17.438-1.782-21.852,5.875c-4.412,7.656-1.781,17.439,5.875,21.852l23.03,13.271l-282.225,76.816
			c-8.526,2.321-13.557,11.114-11.236,19.641C311,374.322,317.45,379.004,324.49,379.004z"/>
	</g>
</g>
<g id="Excelencia" display="none">
	<g display="inline">
		<path fill="#506FB3" d="M929.578,318.607c-23.472-55.493-57.07-105.327-99.861-148.119
			c-42.792-42.792-92.626-76.39-148.119-99.861C624.137,46.323,563.107,34,500.205,34S376.272,46.323,318.812,70.627
			c-55.493,23.472-105.327,57.07-148.119,99.861s-76.39,92.625-99.861,148.119C46.528,376.068,34.205,437.097,34.205,500
			c0,62.902,12.323,123.933,36.627,181.394c23.472,55.492,57.07,105.327,99.861,148.118c42.792,42.792,92.626,76.39,148.119,99.861
			C376.272,953.677,437.302,966,500.205,966s123.932-12.323,181.393-36.627c55.493-23.472,105.327-57.069,148.119-99.861
			c42.791-42.791,76.39-92.626,99.861-148.118c24.304-57.461,36.627-118.491,36.627-181.394
			C966.205,437.097,953.882,376.068,929.578,318.607z M381,250.998V82.646c15.019-4.296,30.369-7.796,46-10.463v163.449
			C411.238,239.513,395.868,244.658,381,250.998z M500.205,258.795c149.91,0,271.871,121.961,271.871,271.871
			c0,149.91-121.961,271.871-271.871,271.871S228.334,680.576,228.334,530.666C228.334,380.756,350.295,258.795,500.205,258.795z
			 M569,234.587V71.455c16.666,2.666,33.02,6.28,49,10.792v168.146C602.186,243.746,585.805,238.458,569,234.587z M537,67.553
			v161.442c-12.119-1.454-24.399-2.2-36.795-2.2c-13.903,0-27.658,0.95-41.205,2.775V67.948C472.565,66.665,486.309,66,500.205,66
			C512.597,66,524.867,66.53,537,67.553z M500.205,934c-239.309,0-434-194.691-434-434C66.205,313.843,184.02,154.692,349,93.176
			v173.778c-22.996,13.234-44.399,29.579-63.664,48.843c-57.394,57.394-89.002,133.702-89.002,214.869
			c0,81.167,31.608,157.476,89.002,214.869c57.394,57.394,133.702,89.002,214.869,89.002s157.476-31.608,214.869-89.002
			s89.002-133.702,89.002-214.869c0-81.167-31.608-157.475-89.002-214.869c-19.66-19.66-41.541-36.291-65.074-49.666V92.649
			C815.72,153.782,934.205,313.313,934.205,500C934.205,739.309,739.514,934,500.205,934z"/>
		<path fill="#506FB3" d="M337.16,693.711c43.551,43.551,101.455,67.535,163.045,67.535c61.591,0,119.494-23.984,163.045-67.535
			s67.535-101.454,67.535-163.045c0-61.59-23.984-119.494-67.535-163.044s-101.455-67.535-163.045-67.535
			c-61.59,0-119.494,23.984-163.045,67.535s-67.535,101.455-67.535,163.044C269.625,592.257,293.609,650.16,337.16,693.711z
			 M500.205,332.086c109.497,0,198.58,89.083,198.58,198.58s-89.083,198.58-198.58,198.58c-109.498,0-198.58-89.083-198.58-198.58
			S390.708,332.086,500.205,332.086z"/>
		<path fill="#506FB3" d="M352.42,513.012l76.155,54.565l-27.83,87.929c-2.074,6.555,0.271,13.702,5.825,17.754
			c5.554,4.054,13.077,4.103,18.685,0.125l74.44-52.79l75.421,53.15c2.766,1.949,5.991,2.922,9.217,2.922
			c3.312,0,6.622-1.026,9.429-3.073c5.54-4.041,7.89-11.164,5.84-17.708l-27.588-88.104l74.546-54.892
			c5.566-4.1,7.871-11.31,5.714-17.877c-2.157-6.568-8.288-11.007-15.201-11.007h-92.146l-29.65-88.672
			c-2.182-6.526-8.293-10.926-15.174-10.926c-0.002,0-0.004,0-0.006,0c-6.884,0.003-12.994,4.408-15.172,10.938l-29.467,88.359
			l-93.769,0.301c-6.942,0.022-13.077,4.518-15.19,11.13C344.386,501.748,346.778,508.969,352.42,513.012z M467.051,515.667
			c6.867-0.022,12.955-4.424,15.127-10.938l17.944-53.808l18.11,54.158c2.182,6.526,8.293,10.926,15.174,10.926h54.953
			l-44.514,32.778c-5.5,4.05-7.823,11.146-5.781,17.665l16.891,53.941l-46.071-32.468c-2.765-1.948-5.991-2.922-9.217-2.922
			c-3.242,0-6.484,0.983-9.255,2.949l-44.767,31.747l16.944-53.534c2.09-6.603-0.306-13.801-5.936-17.834l-45.333-32.482
			L467.051,515.667z"/>
	</g>
</g>
<g id="Transformación_digital" display="none">
	<path display="inline" fill="#506FB3" d="M498.648,966.708c-63.206,0-124.531-12.387-182.271-36.816
		c-55.761-23.593-105.837-57.363-148.837-100.374c-42.999-43.01-76.76-93.097-100.346-148.869
		c-24.422-57.751-36.805-119.086-36.805-182.301c0-63.223,12.383-124.562,36.806-182.312
		c23.585-55.771,57.347-105.854,100.347-148.857c42.999-43.003,93.075-76.766,148.837-100.353
		c57.739-24.423,119.063-36.807,182.27-36.807s124.531,12.384,182.27,36.807c55.763,23.587,105.838,57.351,148.837,100.353
		c42.999,43.004,76.761,93.086,100.346,148.857c24.423,57.75,36.806,119.088,36.806,182.312c0,63.215-12.383,124.55-36.806,182.301
		c-23.585,55.772-57.347,105.859-100.345,148.869c-43,43.011-93.076,76.781-148.837,100.374
		C623.178,954.321,561.854,966.708,498.648,966.708z M498.648,62.996c-240.016,0-435.283,195.298-435.283,435.352
		c0,240.071,195.268,435.384,435.283,435.384c240.015,0,435.282-195.313,435.282-435.384
		C933.93,258.294,738.663,62.996,498.648,62.996z"/>
	<path display="inline" fill="#506FB3" d="M436.644,377.174v-30.204c-83.398,9.411-146.439,79.91-146.546,163.83
		c0.107,83.919,63.148,154.452,146.546,163.828v-31.134c-66.171-8.265-117.388-64.702-117.388-133.16
		C319.256,441.875,370.473,385.441,436.644,377.174"/>
	<path display="inline" fill="#506FB3" d="M435.016,291.716v-54.931c-4.865,0.321-8.211,0.787-13.524,1.432
		c-7.764,0.929-14.061,6.727-15.671,14.386l-5.617,26.553c-4.58,1.109-9.16,2.326-13.739,3.721l-18.282-20.361
		c-5.188-5.835-13.578-7.73-20.805-4.652c-20.519,8.839-39.857,20.184-57.62,33.674c-6.28,4.724-8.838,12.883-6.387,20.362
		l8.39,25.624c-3.434,3.256-6.815,6.619-10.071,10.056l-25.599-8.375c-7.442-2.432-15.618,0.144-20.34,6.335
		c-13.524,17.821-24.848,37.145-33.667,57.688c-3.077,7.193-1.217,15.603,4.615,20.828l20.375,18.251
		c-1.359,4.509-2.612,9.053-3.667,13.598l-28.515,5.691c-8.533,1.718-14.723,9.232-14.723,18.001v62.483
		c0,8.695,6.19,16.21,14.723,17.929l28.515,5.689c1.091,4.545,2.309,9.089,3.667,13.635l-20.375,18.251
		c-5.832,5.225-7.692,13.599-4.615,20.828c8.819,20.506,20.143,39.901,33.667,57.65c4.722,6.227,12.897,8.804,20.34,6.407
		l25.599-8.447c3.256,3.472,6.637,6.872,10.071,10.128l-8.39,25.553c-2.451,7.443,0.107,15.638,6.387,20.36
		c17.763,13.528,37.102,24.837,57.62,33.712c7.227,3.042,15.582,1.181,20.805-4.651l18.282-20.399
		c4.58,1.396,9.159,2.649,13.739,3.722l5.581,26.554c1.61,7.658,7.942,13.456,15.707,14.422c5.313,0.644,8.659,1.074,13.524,1.467
		v-54.931l-1.395-6.729c-1.539-7.336-7.37-12.954-14.687-14.277c-10.841-1.969-21.54-4.867-31.915-8.624
		c-1.986-0.681-4.097-1.038-6.189-1.038c-5.206,0-10.179,2.184-13.668,6.084l-17.209,19.216
		c-9.536-4.795-18.765-10.199-27.604-16.175l7.997-24.228c2.309-7.086,0.108-14.888-5.617-19.718
		c-8.425-7.157-16.262-14.994-23.399-23.476c-4.884-5.618-12.648-7.839-19.713-5.513l-24.186,7.945
		c-6.011-8.803-11.432-18.036-16.19-27.592l19.231-17.211c5.545-5.011,7.513-12.849,4.991-19.828
		c-3.739-10.412-6.602-21.077-8.57-31.92c-1.359-7.409-7.083-13.276-14.472-14.744l-25.617-5.082v-32.422l25.617-5.153
		c7.389-1.469,13.113-7.301,14.472-14.673c1.968-10.914,4.831-21.579,8.57-31.956c2.522-7.015,0.554-14.853-5.028-19.826
		l-19.194-17.249c4.758-9.556,10.179-18.752,16.19-27.591l24.186,7.945c7.102,2.326,14.865,0.143,19.713-5.512
		c7.137-8.481,15.009-16.318,23.453-23.511c5.67-4.832,7.871-12.597,5.527-19.646l-7.924-24.192
		c8.802-6.013,18.031-11.451,27.567-16.212l17.209,19.218c4.991,5.512,12.827,7.551,19.857,5.01
		c10.375-3.721,21.038-6.621,31.915-8.625c7.316-1.324,13.148-6.907,14.651-14.243L435.016,291.716z"/>
	<path display="inline" fill="#506FB3" d="M797.538,567.735c0,10.558-8.551,19.074-19.104,19.074
		c-10.501,0-19.088-8.517-19.088-19.074c0-10.52,8.587-19.109,19.088-19.109C788.987,548.626,797.538,557.216,797.538,567.735
		 M663.996,319.629c0-10.522,8.533-19.038,19.053-19.075c10.537,0,19.087,8.553,19.087,19.075c0,10.557-8.55,19.11-19.087,19.11
		C672.529,338.739,663.996,330.186,663.996,319.629 M549.506,224.223c0,10.557-8.551,19.075-19.088,19.075
		c-10.519,0-19.087-8.518-19.087-19.075c0.037-10.521,8.568-19.075,19.087-19.075C540.955,205.148,549.506,213.702,549.506,224.223
		 M549.506,796.733c0-10.521,8.534-19.074,19.088-19.074c10.501,0,19.052,8.553,19.052,19.074c0,10.557-8.551,19.073-19.052,19.073
		C558.04,815.807,549.506,807.29,549.506,796.733 M832.368,548.448c-8.14-22.796-29.713-38.007-53.935-37.97
		c-24.168,0.071-45.671,15.352-53.704,38.184H606.734v-76.368h76.314c10.537,0.035,19.087-8.518,19.087-19.038v-79.875
		c29.821-10.522,45.422-43.267,34.866-73.042c-10.519-29.846-43.22-45.448-73.006-34.892c-29.84,10.521-45.438,43.23-34.919,73.041
		c5.778,16.283,18.604,29.129,34.919,34.893v60.763h-57.262v-38.184c0-10.52-8.552-19.038-19.053-19.038h-0.036h-38.14v-98.95
		c29.786-10.556,45.421-43.228,34.867-73.074c-10.52-29.811-43.222-45.449-73.042-34.892
		c-29.785,10.522-45.403,43.265-34.884,73.039c5.742,16.32,18.57,29.131,34.884,34.927v98.95h-74.669v38.149h131.932V605.92H436.662
		v38.148h36.53v57.258c0,10.521,8.533,19.074,19.051,19.074h0.037h57.226v22.617c-29.839,10.521-45.438,43.229-34.885,73.04
		c10.52,29.81,43.222,45.448,73.024,34.892c29.822-10.559,45.42-43.23,34.902-73.075c-5.779-16.283-18.604-29.132-34.902-34.856
		v-41.691c0.036-10.557-8.551-19.073-19.052-19.073h-57.263v-38.185h76.314c10.537,0,19.089-8.553,19.089-19.074V586.81h117.995
		c10.591,29.74,43.274,45.271,72.988,34.678C827.468,610.859,842.959,578.186,832.368,548.448"/>
</g>
<g id="Social" display="none">
	<path display="inline" fill="#506FB3" d="M501.355,968.699c-63.168,0-124.456-12.365-182.162-36.751
		c-55.729-23.552-105.776-57.263-148.751-100.199c-42.976-42.937-76.719-92.939-100.293-148.62
		c-24.41-57.656-36.787-118.892-36.787-182.005c0-63.118,12.377-124.356,36.787-182.016
		c23.573-55.683,57.316-105.688,100.292-148.625c42.975-42.938,93.022-76.65,148.752-100.201
		c57.706-24.387,118.994-36.752,182.162-36.752s124.458,12.365,182.167,36.752c55.732,23.551,105.784,57.264,148.763,100.201
		c42.98,42.938,76.728,92.943,100.305,148.625c24.413,57.66,36.792,118.899,36.792,182.017c0,63.113-12.379,124.349-36.793,182.006
		c-23.576,55.68-57.323,105.683-100.304,148.62c-42.979,42.936-93.03,76.646-148.763,100.198
		C625.813,956.334,564.523,968.699,501.355,968.699z M501.355,66.471c-239.889,0-435.052,194.984-435.052,434.653
		c0,239.658,195.164,434.634,435.052,434.634c239.906,0,435.085-194.976,435.085-434.634
		C936.44,261.455,741.262,66.471,501.355,66.471z"/>
	<path display="inline" fill="#506FB3" d="M178.604,448.02l294.156,110.813L814.418,346.5L520.264,235.688L178.604,448.02z
		 M473.965,581.992c-1.308,0-2.615-0.251-3.855-0.737L150.041,460.713c-3.923-1.475-6.638-5.008-7.074-9.194
		c-0.403-4.153,1.574-8.205,5.129-10.399l365.162-226.935c2.915-1.792,6.47-2.161,9.656-0.921l320.068,120.543
		c3.922,1.472,6.669,5.04,7.073,9.193c0.4,4.154-1.577,8.206-5.13,10.4L479.764,580.335
		C477.988,581.439,476.01,581.992,473.965,581.992"/>
	<path display="inline" fill="#506FB3" d="M695.905,381.584c-3.622,0-7.241-1.858-9.321-5.174
		c-3.184-5.158-1.609-11.907,3.521-15.138l23.836-14.805c5.197-3.166,11.937-1.625,15.12,3.499
		c3.218,5.141,1.677,11.924-3.485,15.122l-23.872,14.855C699.894,381.033,697.915,381.584,695.905,381.584"/>
	<path display="inline" fill="#506FB3" d="M468.165,523.111c-3.688,0-7.242-1.843-9.353-5.175
		c-3.186-5.142-1.61-11.924,3.552-15.123l23.838-14.82c5.164-3.147,11.969-1.607,15.153,3.534
		c3.185,5.158,1.609,11.939-3.521,15.138l-23.87,14.806C472.154,522.577,470.143,523.111,468.165,523.111"/>
	<path display="inline" fill="#506FB3" d="M273.28,449.71c-3.688,0-7.242-1.859-9.353-5.191c-3.186-5.141-1.609-11.89,3.554-15.123
		l23.835-14.82c5.131-3.148,11.936-1.607,15.12,3.534c3.186,5.159,1.644,11.907-3.553,15.138l-23.804,14.805
		C277.237,449.159,275.258,449.71,273.28,449.71"/>
	<path display="inline" fill="#506FB3" d="M501.021,308.167c-3.689,0-7.241-1.859-9.354-5.174c-3.185-5.159-1.61-11.94,3.553-15.139
		l23.837-14.804c5.162-3.132,11.934-1.625,15.152,3.517c3.186,5.158,1.61,11.94-3.553,15.139l-23.837,14.803
		C504.977,307.615,502.998,308.167,501.021,308.167"/>
	<path display="inline" fill="#506FB3" d="M477.183,660.216c-1.308,0-2.615-0.234-3.855-0.72L153.259,538.953
		c-5.666-2.126-8.515-8.473-6.403-14.134c2.145-5.66,8.415-8.608,14.182-6.38l314.94,118.633l360.567-224.104
		c5.161-3.148,11.969-1.608,15.152,3.533c3.186,5.158,1.609,11.908-3.52,15.139L482.984,658.575
		C481.206,659.681,479.228,660.216,477.183,660.216"/>
	<path display="inline" fill="#506FB3" d="M480.437,738.44c-1.309,0-2.617-0.234-3.891-0.72l-320.068-120.51
		c-5.667-2.159-8.549-8.474-6.369-14.168c2.078-5.659,8.414-8.574,14.146-6.38l314.973,118.633l360.568-224.072
		c5.13-3.113,11.901-1.64,15.154,3.536c3.185,5.142,1.609,11.905-3.555,15.121L486.234,736.799
		C484.492,737.903,482.447,738.44,480.437,738.44"/>
	<path display="inline" fill="#506FB3" d="M483.687,816.681c-1.308,0-2.613-0.233-3.889-0.719l-320.069-120.51
		c-5.665-2.16-8.548-8.474-6.402-14.168c2.111-5.66,8.415-8.574,14.18-6.381L482.48,793.536l360.534-224.104
		c5.13-3.148,11.936-1.607,15.12,3.533c3.219,5.143,1.676,11.908-3.521,15.123L489.488,815.04
		C487.676,816.129,485.699,816.681,483.687,816.681"/>
	<path display="inline" fill="#506FB3" d="M498.774,366.731c-27.022,0-49.853,13.999-49.853,30.529
		c0,16.496,22.831,30.496,49.853,30.496c27.021,0,49.852-14,49.852-30.496C548.626,380.73,525.795,366.731,498.774,366.731
		 M498.774,449.71c-40.266,0-71.813-23.059-71.813-52.45c0-29.424,31.547-52.468,71.813-52.468
		c40.264,0,71.812,23.044,71.812,52.468C570.586,426.651,539.038,449.71,498.774,449.71"/>
</g>
<g id="Medioambiental" display="none">
	<path display="inline" fill="#506FB3" d="M498.631,967.418c-62.75,0-123.634-12.363-180.96-36.747
		c-55.355-23.546-105.066-57.247-147.751-100.169C127.24,787.586,93.73,737.61,70.321,681.963
		c-24.237-57.617-36.527-118.809-36.527-181.875c0-63.069,12.29-124.263,36.527-181.882
		c23.409-55.649,56.918-105.626,99.598-148.542c42.685-42.922,92.396-76.624,147.751-100.169
		c57.326-24.383,118.209-36.747,180.96-36.747s123.635,12.364,180.961,36.747c55.355,23.545,105.066,57.247,147.752,100.169
		c42.68,42.917,76.189,92.894,99.599,148.542c24.237,57.619,36.527,118.813,36.527,181.882c0,63.067-12.29,124.258-36.527,181.875
		c-23.409,55.647-56.919,105.623-99.599,148.539c-42.686,42.922-92.396,76.623-147.752,100.169
		C622.266,955.055,561.381,967.418,498.631,967.418z M498.631,65.567c-238.215,0-432.016,194.925-432.016,434.52
		c0,239.59,193.801,434.51,432.016,434.51c238.216,0,432.019-194.92,432.019-434.51C930.649,260.492,736.847,65.567,498.631,65.567z
		"/>
	<path display="inline" fill="#506FB3" d="M760.848,501.847l-0.064,2.326c-0.035,0.99-0.101,1.96-0.201,2.913l-0.065,0.921
		c-3.33,49.75-20.176,97.156-48.741,137.064l-1.301,1.825l-1.763-1.274c-13.284-9.288-27.235-17.441-41.417-24.271l-1.766-0.854
		l0.601-1.892c2.73-8.417,4.793-17.693,6.728-26.633c0.53-2.578,1.128-5.17,1.696-7.75l0.497-2.227l1.533,0.386
		c0.699-3.565,1.229-7.216,1.765-10.764c0.333-2.445,0.666-4.872,1.099-7.282c0.066-0.467,0.134-0.919,0.199-1.338
		c2.998-18.363,4.792-36.813,5.463-55.093c0.064-0.751,0.166-1.473,0.23-2.158c0.102-0.584,0.167-1.155,0.2-1.774l0.101-2.126
		H760.848z M760.816,478.393H685.54l-0.066-2.193c-0.499-13.74-1.398-26.128-2.829-37.778c-0.102-1.206-0.202-2.295-0.336-3.4
		c-0.832-6.343-1.962-12.638-3.059-18.75l-0.235-1.473c-0.366-2.158-0.666-4.284-0.966-6.411c-0.465-2.915-0.866-5.924-1.465-8.839
		l-0.568,0.134l-0.498-2.26c-2.628-11.599-5.76-23.083-9.388-34.215l-0.601-1.858l1.766-0.856
		c14.316-6.929,28.232-15.08,41.386-24.302l1.794-1.275l1.301,1.793c11.686,16.354,21.31,33.347,28.599,50.486
		c0.333,0.754,0.634,1.506,0.932,2.227l0.599,1.59c2.866,6.982,5.196,13.511,7.26,19.838v0.033
		c6.492,21.713,10.388,43.623,11.519,65.117L760.816,478.393z M695.929,316.724l-2.099,1.437
		c-11.521,7.852-22.705,14.397-34.192,20.09l-2.163,1.051l-0.935-2.227c-13.58-32.941-31.527-61.229-53.235-84.097l-7.989-8.354
		l10.519,4.753c33.725,15.334,63.49,37.349,88.395,65.421L695.929,316.724z M635.767,346.369l0.865,2.158l-2.128,0.82
		c-22.143,8.438-44.55,14.684-66.589,18.516l-2.365,0.386l-0.266-2.377c-6.293-56.182-16.611-100.606-29.765-128.512l-2.432-5.223
		l5.297,2.161C578.504,250.65,613.094,290.459,635.767,346.369 M542.312,369.1l0.268,2.26l-2.265,0.236
		c-16.147,1.658-29.531,2.409-42.214,2.409c-12.688,0-26.137-0.751-42.285-2.409l-2.232-0.236l0.235-2.26
		c10.188-89.625,30.495-143.156,44.282-143.156C511.847,225.944,532.158,279.475,542.312,369.1 M463.04,232.137l-2.464,5.223
		c-13.115,27.906-23.405,72.366-29.697,128.512l-0.301,2.377l-2.295-0.386c-22.038-3.832-44.448-10.078-66.618-18.516l-2.164-0.82
		l0.861-2.158c22.743-55.946,57.301-95.752,97.419-112.071L463.04,232.137z M400.813,244.625l-7.921,8.354
		c-21.743,22.868-39.684,51.156-53.304,84.097l-0.897,2.227l-2.131-1.051c-11.653-5.759-23.143-12.523-34.227-20.09l-2.099-1.47
		l1.702-1.892c24.935-28.106,54.665-50.121,88.422-65.421L400.813,244.625z M328.869,360.494l1.762,0.856L330,363.208
		c-3.563,11.066-6.689,22.548-9.355,34.215l-0.467,2.227l-0.664-0.152c-0.533,2.9-0.965,5.878-1.367,8.757
		c-0.3,2.191-0.631,4.418-1,6.579c-1.197,6.747-2.394,13.376-3.263,20.219c-0.133,1.072-0.232,2.161-0.333,3.298
		c-1.429,11.686-2.394,24.074-2.828,37.847l-0.099,2.193h-75.244l0.101-2.392c1.164-21.611,5.024-43.539,11.584-65.183
		c2.031-6.411,4.429-12.958,7.124-19.569l0.435-1.206c0.401-0.955,0.797-1.942,1.199-2.913c7.257-17.142,16.877-34.116,28.498-50.42
		l1.298-1.793l1.831,1.275C300.735,345.48,314.688,353.633,328.869,360.494 M235.248,501.847h75.346l0.065,2.191
		c0,0.62,0.099,1.242,0.165,1.809c0.101,0.686,0.202,1.341,0.235,2.026c0.631,18.213,2.461,36.66,5.426,54.889l0.235,1.506
		c0.429,2.547,0.798,5.04,1.161,7.554c0.467,3.497,1.003,7.095,1.667,10.561l1.566-0.317l0.498,2.158
		c0.598,2.613,1.134,5.205,1.734,7.815c1.93,8.923,3.959,18.15,6.656,26.567l0.631,1.892l-1.762,0.854
		c-14.115,6.83-28.068,14.983-41.418,24.271l-1.831,1.274l-1.298-1.825c-28.498-39.875-45.347-87.281-48.708-137.064
		c-0.032-0.635-0.065-1.221-0.098-1.843c-0.068-0.65-0.101-1.27-0.134-1.958L235.248,501.847z M300.235,665.126l2.099-1.44
		c11.385-7.767,22.574-14.361,34.227-20.09l2.164-1.051l0.864,2.227c13.62,32.908,31.561,61.232,53.304,84.066l7.921,8.352
		l-10.454-4.718c-33.758-15.301-63.488-37.315-88.422-65.421L300.235,665.126z M423.922,501.847v2.225
		c0.033,1.409,0.066,2.915,0.132,4.454c0.068,1.64,0.131,3.301,0.131,4.84l0.134,8.435c0.068,5.624,0.167,11.2,0.333,16.723
		l0.434,2.024c0.733,17.04,1.73,32.61,2.998,47.559l0.199,2.092l-2.063,0.335c-23.842,4.018-48.143,10.731-72.282,19.923
		l-2.167,0.851l-0.727-2.293c-4.53-14.463-8.325-30.579-11.254-47.889c-0.301-1.658-0.568-3.334-0.836-5.007
		c-2.328-14.781-3.861-30.62-4.593-47.239l-0.099-1.858c-0.068-0.955-0.134-1.892-0.164-2.882l-0.033-2.291H423.922z
		 M334.099,478.393l0.096-2.326c0.765-22.665,3.196-44.781,7.257-65.754c2.432-12.351,5.595-24.589,9.593-37.514l0.727-2.257
		l2.167,0.851c24.104,9.191,48.44,15.872,72.315,19.922l2.063,0.353l-0.2,2.075c-1.366,16.151-2.429,32.174-3.128,47.525
		l-0.101,2.161h-0.235c-0.033,1.772-0.033,3.563-0.065,5.385l-0.069,3.832c-0.3,8.189-0.464,15.974-0.596,23.521l-0.035,2.227
		H334.099z M360.362,635.48l-0.861-2.16l2.164-0.82c22.17-8.474,44.58-14.682,66.585-18.514l2.298-0.421l0.263,2.412
		c6.361,56.146,16.65,100.571,29.766,128.527l2.497,5.208l-5.292-2.158C417.629,731.162,383.072,691.357,360.362,635.48
		 M453.819,612.748l-0.3-2.293l2.265-0.201c16.18-1.658,29.628-2.412,42.317-2.412c12.683,0,26.102,0.754,42.282,2.412l2.229,0.201
		l-0.232,2.293c-10.153,89.625-30.533,143.176-44.279,143.176C484.314,755.924,463.975,702.373,453.819,612.748 M447.425,478.393
		l0.036-2.29c0.297-25.095,1.532-50.237,3.959-79.064l0.167-2.26l2.265,0.2c16.879,1.727,30.896,2.512,44.249,2.512
		c13.314,0,27.366-0.785,44.211-2.512l2.265-0.2l0.2,2.26c2.333,28.393,3.595,53.516,3.896,79.064l0.065,2.29H447.425z
		 M548.738,501.847v2.291c-0.301,26.435-1.563,52.081-3.962,80.672l-0.2,2.26l-2.265-0.2c-16.845-1.725-30.896-2.512-44.211-2.512
		c-13.353,0-27.369,0.787-44.249,2.512l-2.265,0.2l-0.167-2.26c-2.461-28.894-3.729-54.506-4.027-80.672l-0.033-2.291H548.738z
		 M533.088,749.713l2.465-5.208c13.186-27.956,23.472-72.382,29.765-128.527l0.269-2.412l2.362,0.421
		c22.006,3.832,44.378,10.04,66.556,18.514l2.128,0.82l-0.865,2.125c-22.637,55.912-57.198,95.717-97.349,112.109L533.088,749.713z
		 M572.244,478.393l-0.033-2.227c-0.102-7.546-0.269-15.332-0.568-23.452l-0.033-3.395c-0.032-2.026-0.101-4.035-0.166-6.025
		l-0.298-1.993c-0.7-15.352-1.735-31.374-3.096-47.592l-0.169-2.042l1.999-0.353c23.837-4.017,48.144-10.73,72.313-19.922
		l2.229-0.851l0.702,2.257c3.86,12.374,7.053,24.96,9.586,37.514c4.095,21.276,6.524,43.392,7.226,65.754l0.066,2.326H572.244z
		 M662.136,501.847l-0.334,7.031c-0.734,16.688-2.265,32.524-4.596,47.071l-0.268,1.673c-0.199,1.173-0.365,2.326-0.563,3.502
		c-2.998,17.31-6.76,33.426-11.252,47.889l-0.702,2.293l-2.229-0.851c-24.106-9.191-48.408-15.87-72.279-19.923l-1.998-0.335
		l0.167-2.092c1.263-14.981,2.265-30.549,2.994-47.559l0.102-2.126h0.331c0.2-6.21,0.301-12.622,0.366-18.814l0.067-6.277
		c0.033-1.368,0.102-2.847,0.135-4.283c0.099-1.706,0.167-3.434,0.167-4.975l0.032-2.225H662.136z M595.315,737.223l7.989-8.385
		c21.708-22.834,39.655-51.158,53.235-84.066l0.935-2.227l2.163,1.051c11.687,5.795,22.872,12.355,34.192,20.09l2.099,1.44
		l-1.7,1.925c-24.904,28.072-54.67,50.084-88.395,65.421L595.315,737.223z M789.415,490.665l0.033-0.551
		c0-0.688-0.065-1.374-0.134-2.009c-0.065-0.553-0.101-1.074-0.101-1.658c-0.199-10.248-0.998-20.943-2.331-31.709
		c-0.599-5.068-1.429-10.461-2.598-16.906v-0.033c-1.027-5.723-2.329-11.213-3.594-16.287
		c-8.322-35.038-21.874-66.841-40.251-94.579l-1.266-1.892l-0.863,0.584c-54.603-80.014-144.229-127.705-240.211-127.705
		c-96.018,0-185.677,47.69-240.246,127.705l-0.867-0.584l-1.265,1.892c-18.377,27.703-31.894,59.508-40.254,94.546
		c-1.263,5.19-2.593,10.698-3.626,16.385c-1,5.594-1.863,11.251-2.565,16.809c-1.295,10.479-2.096,21.177-2.298,31.806
		c0,0.551-0.065,1.072-0.134,1.574c-0.063,0.686-0.129,1.338-0.129,2.06v1.623c0,0.688,0.065,1.374,0.129,2.041
		c0.068,0.521,0.134,1.042,0.134,1.625c0.202,10.563,1.002,21.257,2.298,31.704c0.667,5.559,1.533,11.084,2.565,16.876
		c1.033,5.689,2.363,11.197,3.626,16.352c8.36,35.074,21.877,66.877,40.254,94.582l1.265,1.889l0.867-0.586
		c54.569,80.016,144.228,127.709,240.246,127.709c95.982,0,185.674-47.726,240.244-127.775l0.863,0.554l1.232-1.826
		c18.344-27.702,31.929-59.508,40.251-94.579c1.199-4.771,2.53-10.395,3.594-16.285c1.169-6.377,1.967-11.77,2.598-16.876
		c1.333-10.796,2.132-21.494,2.331-31.77c0-0.551,0.035-1.071,0.101-1.625c0.068-0.635,0.134-1.32,0.134-2.008l-0.033-0.554
		l-2.265-0.284L789.415,490.665z"/>
</g>
<g id="Guias" display="none">
</g>
</svg>
