<?xml version="1.0" encoding="utf-8"?>
<!-- Generator: Adobe Illustrator 16.0.0, SVG Export Plug-In . SVG Version: 6.00 Build 0)  -->
<!DOCTYPE svg PUBLIC "-//W3C//DTD SVG 1.1//EN" "http://www.w3.org/Graphics/SVG/1.1/DTD/svg11.dtd">
<svg version="1.1" id="Capa_1" xmlns="http://www.w3.org/2000/svg" xmlns:xlink="http://www.w3.org/1999/xlink" x="0px" y="0px"
	 width="1000px" height="1000px" viewBox="0 0 1000 1000" enable-background="new 0 0 1000 1000" xml:space="preserve">
<g>
	<path fill="#010202" d="M499.987,992.106c271.8,0,492.132-220.309,492.132-492.106c0-271.798-220.332-492.106-492.132-492.106
		C228.215,7.894,7.881,228.202,7.881,500C7.881,771.798,228.215,992.106,499.987,992.106"/>
	<g>
		<path fill="#FFFFFF" d="M279.931,637.552c11.129-1.854,25.704-3.445,44.254-3.445c22.79,0,39.485,5.3,50.084,14.839
			c9.805,8.481,15.635,21.466,15.635,37.365c0,16.165-4.77,28.885-13.78,38.16c-12.19,12.984-32.064,19.609-54.589,19.609
			c-6.89,0-13.25-0.266-18.55-1.59v71.549h-23.054V637.552z M302.984,723.676c5.035,1.324,11.396,1.855,19.08,1.855
			c27.825,0,44.784-13.516,44.784-38.16c0-23.584-16.694-34.979-42.134-34.979c-10.07,0-17.755,0.794-21.73,1.854V723.676z"/>
		<path fill="#FFFFFF" d="M434.151,637.817c14.044-2.12,30.739-3.711,49.025-3.711c33.123,0,56.708,7.686,72.344,22.26
			c15.899,14.574,25.175,35.245,25.175,64.13c0,29.149-9.012,52.999-25.706,69.428c-16.694,16.694-44.253,25.705-78.968,25.705
			c-16.43,0-30.21-0.795-41.87-2.119V637.817z M457.206,795.754c5.831,1.061,14.311,1.325,23.319,1.325
			c49.29,0,76.053-27.559,76.053-75.788c0.268-42.136-23.582-68.899-72.342-68.899c-11.926,0-20.936,1.06-27.031,2.386V795.754z"/>
		<path fill="#FFFFFF" d="M623.877,635.432h96.193v19.346h-73.138v59.358h67.571v19.079h-67.571v80.824h-23.056V635.432z"/>
	</g>
	<polygon fill="#FFFFFF" points="579.389,311.496 509.451,386.717 509.451,121.454 490.525,121.454 490.525,386.711 
		420.615,311.497 406.75,324.383 499.987,424.693 593.25,324.383 	"/>
	<rect x="367.508" y="471.593" fill="#FFFFFF" width="264.985" height="18.928"/>
</g>
</svg>
