<?xml version="1.0" encoding="utf-8"?>
<!DOCTYPE svg PUBLIC "-//W3C//DTD SVG 1.1//EN" "http://www.w3.org/Graphics/SVG/1.1/DTD/svg11.dtd">
<svg version="1.1" id="Capa_1" xmlns="http://www.w3.org/2000/svg" xmlns:xlink="http://www.w3.org/1999/xlink" x="0px" y="0px"
	 width="1000px" height="129.167px" viewBox="0 0 1000 129.167" enable-background="new 0 0 1000 129.167" xml:space="preserve">
<path fill="#010202" d="M888.169,17.692H877.07v57.179c0,21.495-11.522,32.455-29.644,32.455c-18.825,0-30.067-11.945-30.067-33.158
	V17.692h-11.099v57.179c0,27.821,16.575,42.708,40.881,42.708c24.591,0,41.027-14.887,41.027-43.55V17.692z M734.048,26.261
	c-22.479,0-38.492,17.987-38.492,40.462c0,22.482,16.298,40.742,38.773,40.742c22.482,0,38.496-17.982,38.496-40.458
	C772.825,44.524,756.527,26.261,734.048,26.261 M734.048,117.722c-29.924,0-50.015-23.459-50.015-50.715
	c0-27.255,20.367-51.003,50.296-51.003c29.924,0,50.019,23.463,50.019,50.719C784.348,93.978,763.973,117.722,734.048,117.722
	 M561.806,102.692V69.725h-40.604v9.969h29.929v18.223c-6.745,5.48-17.145,9.834-28.382,9.834
	c-23.885,0-38.916-17.426-38.916-41.027c0-22.06,15.593-40.462,37.369-40.462c13.907,0,22.337,4.638,29.929,11.241l7.161-8.434
	c-9.834-8.284-20.091-13.064-36.666-13.064c-29.507,0-49.317,23.887-49.317,51.003c0,28.24,19.11,50.715,50.017,50.715
	C538.904,117.722,552.676,110.838,561.806,102.692 M371.611,29.914l-22.477,50.157h44.815L371.611,29.914z M409.827,116.037
	l-11.52-25.99h-53.532l-11.66,25.99h-11.378l44.815-99.045h10.399l44.815,99.045H409.827z M311.883,100.446l-7.303-7.173
	c-9.415,8.996-18.264,14.191-31.755,14.191c-21.634,0-38.069-17.841-38.069-40.742c0-22.902,16.294-40.462,38.069-40.462
	c13.349,0,22.623,5.623,30.911,13.491l7.586-8.149c-9.832-9.272-20.51-15.599-38.354-15.599c-28.942,0-49.736,22.902-49.736,51.003
	c0,28.374,20.935,50.715,49.315,50.715C290.391,117.722,301.626,110.838,311.883,100.446 M153.832,26.261
	c-22.483,0-38.497,17.987-38.497,40.462c0,22.482,16.299,40.742,38.775,40.742c22.481,0,38.495-17.982,38.495-40.458
	C192.605,44.524,176.307,26.261,153.832,26.261 M153.832,117.722c-29.927,0-50.017-23.459-50.017-50.715
	c0-27.255,20.369-51.003,50.295-51.003s50.015,23.463,50.015,50.719C204.125,93.978,183.756,117.722,153.832,117.722 M75.398,53.333
	c0,16.624-10.538,26.486-25.29,26.486H19.903v-51.87H50.25C66.128,27.949,75.398,37.445,75.398,53.333 M86.638,51.478
	c0-17.698-13.906-33.785-35.545-33.785H8.806v98.345h11.097V89.99h28.102l28.519,26.047h13.627L59.946,88.025
	C75.398,85.218,86.638,67.915,86.638,51.478 M627.452,27.949h-30.348v51.87h30.205c14.753,0,25.29-9.862,25.29-26.486
	C652.6,37.445,643.323,27.949,627.452,27.949 M637.147,88.025l30.205,28.012h-13.63L625.202,89.99h-28.098v26.047h-11.099V17.692
	h42.288c21.637,0,35.543,16.087,35.543,33.785C663.837,67.915,652.6,85.218,637.147,88.025 M980.785,53.333
	c0,16.624-10.533,26.486-25.286,26.486h-30.204v-51.87h30.347C971.518,27.949,980.785,37.445,980.785,53.333 M992.031,51.478
	c0-17.698-13.915-33.785-35.551-33.785h-42.285v98.345h11.1V89.99h28.093l13.02-0.956C981.863,86.227,992.031,67.915,992.031,51.478
	"/>
</svg>
